<svg width="238" height="560" viewBox="0 0 238 560" fill="none" xmlns="http://www.w3.org/2000/svg">
<path d="M122 1569C-3.33333 1538.98 -3.33333 1498.95 122 1468.93C247.333 1438.91 247.333 1398.89 122 1368.87C-3.33333 1338.85 -3.33333 1298.82 122 1268.8C247.333 1238.78 247.333 1198.75 122 1168.73C-3.33333 1138.71 -3.33333 1098.69 122 1068.67C247.333 1038.65 247.333 998.62 122 968.6C-3.33333 938.58 -3.33333 898.553 122 868.533C247.333 838.513 247.333 798.487 122 768.467C-3.33333 738.447 -3.33333 698.42 122 668.4C247.333 638.38 247.333 598.353 122 568.333C-3.33333 538.313 -3.33333 498.287 122 468.267C247.333 438.247 247.333 398.22 122 368.2C-3.33333 338.18 -3.33333 298.153 122 268.133C247.333 238.113 247.333 198.087 122 168.067C-3.33333 138.047 -3.33333 98.02 122 68" stroke="url(#paint0_linear)" stroke-width="20"/>
<path d="M119 1489C-6.33333 1458.98 -6.33333 1418.95 119 1388.93C244.333 1358.91 244.333 1318.89 119 1288.87C-6.33333 1258.85 -6.33333 1218.82 119 1188.8C244.333 1158.78 244.333 1118.75 119 1088.73C-6.33333 1058.71 -6.33333 1018.69 119 988.667C244.333 958.647 244.333 918.62 119 888.6C-6.33333 858.58 -6.33333 818.553 119 788.533C244.333 758.513 244.333 718.487 119 688.467C-6.33333 658.447 -6.33333 618.42 119 588.4C244.333 558.38 244.333 518.353 119 488.333C-6.33333 458.313 -6.33333 418.287 119 388.267C244.333 358.247 244.333 318.22 119 288.2C-6.33333 258.18 -6.33333 218.153 119 188.133C244.333 158.113 244.333 118.087 119 88.0667C-6.33333 58.0467 -6.33333 18.02 119 -12" stroke="url(#paint1_linear)" stroke-opacity="0.5" stroke-width="50"/>
<defs>
<linearGradient id="paint0_linear" x1="27.9999" y1="228" x2="18.9999" y2="742.5" gradientUnits="userSpaceOnUse">
<stop stop-color="#DA70D6"/>
<stop offset="0.151042" stop-color="#DA70D6" stop-opacity="0.848958"/>
<stop offset="1" stop-color="#DA70D6" stop-opacity="0"/>
</linearGradient>
<linearGradient id="paint1_linear" x1="109" y1="202.5" x2="119" y2="781.5" gradientUnits="userSpaceOnUse">
<stop stop-color="#DA70D6"/>
<stop offset="1" stop-color="#DA70D6" stop-opacity="0"/>
</linearGradient>
</defs>
</svg>
