<svg width="424" height="225" viewBox="0 0 424 225" fill="none" xmlns="http://www.w3.org/2000/svg">
<path d="M313.482 0C313.482 0 207.86 1.9182 203.161 110.893C203.161 110.893 198.035 217.535 314.815 224.948V208.911C314.815 208.911 221.958 209.965 218.831 110.91C218.831 110.91 216.866 21.3594 313.482 15.8641V0Z" fill="#70DA74" fill-opacity="0.5"/>
<path d="M313.482 30.4493C313.482 30.4493 238.414 30.4493 234.586 112.154C234.586 112.154 230.98 185.374 314.319 193.894V179.119C314.319 179.119 252.136 177.391 250.17 112.172C250.17 112.172 250.17 50.2707 313.397 45.8986L313.482 30.4493Z" fill="#70DA74" fill-opacity="0.5"/>
<path d="M333.219 2.83411C333.219 2.83411 420.608 6.29033 422.932 110.893C422.932 110.893 428.827 202.483 333.339 221.976V205.853C333.339 205.853 404.938 193.894 407.245 110.893C407.245 110.893 406.51 32.7304 333.526 18.5945L333.219 2.83411Z" fill="#70DA74" fill-opacity="0.5"/>
<path d="M152.563 101.129L151.435 110.236C156.134 47.1944 214.747 47.2981 214.747 47.2981C279.562 47.8857 280.023 110.893 280.023 110.893C278.964 178.635 211.961 178.635 211.961 178.635V225C333.629 219.107 325.392 104.948 325.392 104.948C314.815 1.52046 223.718 0.172525 223.718 0.172525C130.28 -3.2837 110.936 77.0043 110.936 77.0043C80.3143 -6.79176 0 0.345336 0 0.345336V217.292H13.9439V13.2198C98.5815 25.3165 103.281 110.893 103.281 110.893H121.463C129.682 14.6022 216.08 13.4099 216.08 13.4099C310.714 19.6483 311.004 110.893 311.004 110.893C310.406 197.661 226.657 208.946 226.657 208.946V189.936C296.719 180.293 294.258 110.893 294.258 110.893C290.14 31.5377 214.747 32.1426 214.747 32.1426C140.396 33.3868 137.85 110.236 137.85 110.236H151.367" fill="#70DA74" fill-opacity="0.5"/>
</svg>
