<svg width="326" height="223" viewBox="0 0 326 223" fill="none" xmlns="http://www.w3.org/2000/svg">
<path d="M152.792 122.257L151.662 113.268C156.368 175.488 215.069 175.386 215.069 175.386C279.981 174.806 280.443 112.62 280.443 112.62C279.382 45.7611 212.279 45.7611 212.279 45.7611V0C334.129 5.81607 325.88 118.488 325.88 118.488C315.287 220.567 224.053 221.898 224.053 221.898C130.475 225.309 111.103 146.067 111.103 146.067C80.4346 228.771 0 221.727 0 221.727V7.60694H13.9648V209.02C98.695 197.098 103.401 112.569 103.401 112.569H121.645C129.876 207.605 216.403 208.782 216.403 208.782C311.179 202.676 311.47 112.569 311.47 112.569C310.871 26.9313 226.997 15.7938 226.997 15.7938V34.5553C297.129 44.1237 294.699 112.569 294.699 112.569C290.574 190.89 215.069 190.31 215.069 190.31C140.607 189.065 138.057 113.217 138.057 113.217H151.594" fill="#C9C5FF"/>
</svg>
