<svg xmlns="http://www.w3.org/2000/svg" viewBox="0 0 247.54 130.2"><g id="Layer_2" data-name="Layer 2"><g id="logo_vertical" data-name="logo vertical"><path d="M183.45,0s-61.81,1.11-64.56,64.17c0,0-3,61.71,65.34,66v-9.28s-54.34.61-56.17-56.71c0,0-1.15-51.82,55.39-55Z"/><path d="M183.45,17.62s-43.93,0-46.17,47.28c0,0-2.11,42.37,46.66,47.3v-8.55s-36.39-1-37.54-38.74c0,0,0-35.82,37-38.35Z"/><path d="M195,1.64s51.14,2,52.5,62.53c0,0,3.45,53-52.43,64.28v-9.33s41.9-6.92,43.25-54.95c0,0-.43-45.23-43.14-53.41Z"/><path d="M89.28,58.52l-.66,5.27c2.75-36.48,37.05-36.42,37.05-36.42,37.93.34,38.2,36.8,38.2,36.8-.62,39.2-39.83,39.2-39.83,39.2V130.2c71.2-3.41,66.38-69.47,66.38-69.47C184.23.88,130.92.1,130.92.1c-54.68-2-66,44.46-66,44.46C47-3.93,0,.2,0,.2V125.74H8.16l0-118.09c49.53,7,52.28,56.52,52.28,56.52H71.08C75.89,8.45,126.45,7.76,126.45,7.76,181.83,11.37,182,64.17,182,64.17c-.35,50.21-49.36,56.74-49.36,56.74v-11c41-5.58,39.56-45.74,39.56-45.74-2.41-45.92-46.53-45.57-46.53-45.57-43.51.72-45,45.19-45,45.19h7.91"/></g></g></svg>