<svg id="Layer_1" data-name="Layer 1" xmlns="http://www.w3.org/2000/svg" xmlns:xlink="http://www.w3.org/1999/xlink" viewBox="0 0 1029 1624.68"><defs><style>.cls-1{fill:#fff;}.cls-1,.cls-2{fill-rule:evenodd;}.cls-2{fill:#70da74;fill-opacity:0.5;}.cls-3{mask:url(#mask);}.cls-4{fill:#c9c5ff;}</style><mask id="mask" x="0" y="0" width="1029" height="1624.68" maskUnits="userSpaceOnUse"><g transform="translate(-77.59 -50.16)"><g id="path-1-inside-1"><path class="cls-1" d="M142,1534.21c10.87,5.86,27.61,12.14,50.94,18.36q4.1-1,8.37-2.07c31-7.43,53.53-15.31,68.08-23.16,7.28-3.92,12.08-7.58,15-10.75s3.3-5.22,3.3-6.4-.49-3.27-3.3-6.39-7.67-6.84-15-10.76q-4.21-2.26-9.33-4.55c-15.12,5.8-33.09,11.14-53.6,16-30.51,7.31-51.59,14.83-64.46,21.77a68.61,68.61,0,0,0-6.53,4A68.61,68.61,0,0,0,142,1534.21Zm52.81,70.39a449.88,449.88,0,0,1-50.32-14.8q-3.54,1.65-6.61,3.31c-7.28,3.92-12.08,7.58-15,10.76s-3.29,5.21-3.29,6.39.48,3.28,3.29,6.39,7.67,6.84,15,10.76c14.55,7.84,37.08,15.73,68.08,23.16L201.26,1670c-31.67-7.59-56.14-16-72.92-25-8.38-4.52-15.34-9.46-20.3-15s-8.45-12.22-8.45-19.79S103,1596,108,1590.46a64.14,64.14,0,0,1,13.08-10.72c-1-.5-2-1-2.9-1.52-9.21-5-17.78-10.87-24.32-18.11-6.67-7.4-12.31-17.48-12.31-29.85s5.64-22.46,12.31-29.85,15.11-13.15,24.32-18.11c13.81-7.44,31.79-14.21,53.44-20.36-17.72-5.37-32.2-11.07-43.32-17.06-8.38-4.52-15.34-9.46-20.3-15s-8.45-12.22-8.45-19.79,3.43-14.24,8.45-19.8a64.5,64.5,0,0,1,13.08-10.73c-1-.5-2-1-2.9-1.51-9.21-5-17.78-10.87-24.32-18.12s-12.31-17.48-12.31-29.84,5.64-22.46,12.31-29.85c6.54-7.24,15.11-13.15,24.32-18.12,13.81-7.44,31.79-14.2,53.44-20.36-17.72-5.36-32.2-11.06-43.32-17-8.38-4.52-15.34-9.46-20.3-15s-8.45-12.22-8.45-19.8,3.43-14.23,8.45-19.79a64.5,64.5,0,0,1,13.08-10.73c-1-.5-2-1-2.9-1.52-9.21-5-17.78-10.87-24.32-18.11S81.59,1142.36,81.59,1130s5.64-22.45,12.31-29.84S109,1087,118.22,1082c13.81-7.44,31.79-14.2,53.44-20.36-17.72-5.37-32.2-11.06-43.32-17.05-8.38-4.52-15.34-9.46-20.3-15s-8.45-12.22-8.45-19.79,3.43-14.24,8.45-19.8a64.14,64.14,0,0,1,13.08-10.72c-1-.5-2-1-2.9-1.52-9.21-5-17.78-10.87-24.32-18.11-6.67-7.4-12.31-17.48-12.31-29.85S87.23,907.41,93.9,900c6.54-7.24,15.11-13.15,24.32-18.11,13.81-7.44,31.79-14.21,53.44-20.36-17.72-5.37-32.2-11.07-43.32-17.06C120,840,113,835,108,829.52s-8.45-12.22-8.45-19.79,3.43-14.24,8.45-19.8a64.14,64.14,0,0,1,13.08-10.72c-1-.51-2-1-2.9-1.52-9.21-5-17.78-10.87-24.32-18.12s-12.31-17.48-12.31-29.84,5.64-22.46,12.31-29.85,15.11-13.15,24.32-18.12c13.81-7.44,31.79-14.2,53.44-20.36-17.72-5.36-32.2-11.06-43.32-17-8.38-4.52-15.34-9.46-20.3-15s-8.45-12.22-8.45-19.8S103,595.36,108,589.8a64.5,64.5,0,0,1,13.08-10.73c-1-.5-2-1-2.9-1.51-9.21-5-17.78-10.88-24.32-18.12-6.67-7.39-12.31-17.48-12.31-29.85s5.64-22.45,12.31-29.84S109,486.6,118.22,481.63c13.81-7.44,31.79-14.2,53.44-20.36-17.72-5.37-32.2-11.06-43.32-17-8.38-4.52-15.34-9.46-20.3-15S99.59,417,99.59,409.46s3.43-14.24,8.45-19.8a64.14,64.14,0,0,1,13.08-10.72c-1-.5-2-1-2.9-1.52-9.21-5-17.78-10.87-24.32-18.11-6.67-7.4-12.31-17.48-12.31-29.85S87.23,307,93.9,299.61c6.54-7.24,15.11-13.15,24.32-18.11,13.81-7.44,31.79-14.21,53.44-20.36-17.72-5.37-32.2-11.07-43.32-17.06-8.38-4.52-15.34-9.46-20.3-15s-8.45-12.22-8.45-19.79,3.43-14.24,8.45-19.8a64.14,64.14,0,0,1,13.08-10.72c-1-.51-2-1-2.9-1.52-9.21-5-17.78-10.87-24.32-18.12s-12.31-17.48-12.31-29.84,5.64-22.46,12.31-29.85S109,86.33,118.22,81.36c18.46-9.94,44.39-18.68,76.54-26.38l11.65,48.63c-30.51,7.3-51.59,14.83-64.46,21.77a66.58,66.58,0,0,0-6.53,4,66.77,66.77,0,0,0,6.53,3.94c10.87,5.87,27.61,12.15,50.94,18.36q4.1-1,8.37-2.06l1.07,4.49,4.08,1c32.16,7.7,58.08,16.43,76.54,26.38,9.21,5,17.78,10.87,24.32,18.12s12.32,17.47,12.32,29.84-5.65,22.46-12.32,29.85c-6.46,7.15-14.89,13-24,17.93a68.44,68.44,0,0,1,15.83,12.43c5,5.56,8.46,12.22,8.46,19.79s-3.44,14.24-8.46,19.8-11.91,10.44-20.3,15c-11.73,6.32-27.2,12.31-46.26,17.93,20.28,5.92,37.22,12.4,50.38,19.48,9.21,5,17.78,10.88,24.32,18.12s12.32,17.48,12.32,29.85-5.65,22.45-12.32,29.84c-6.46,7.15-14.89,13-24,17.93a68.44,68.44,0,0,1,15.83,12.43c5,5.56,8.46,12.22,8.46,19.8s-3.44,14.23-8.46,19.79-11.91,10.44-20.3,15c-11.73,6.32-27.2,12.31-46.26,17.94,20.28,5.92,37.22,12.39,50.38,19.48,9.21,5,17.78,10.87,24.32,18.11,6.67,7.4,12.32,17.48,12.32,29.85s-5.65,22.45-12.32,29.85c-6.46,7.15-14.89,13-24,17.92a68.44,68.44,0,0,1,15.83,12.43c5,5.56,8.46,12.23,8.46,19.8s-3.44,14.23-8.46,19.79-11.91,10.45-20.3,15c-11.73,6.32-27.2,12.31-46.26,17.93,20.28,5.92,37.22,12.39,50.38,19.48,9.21,5,17.78,10.87,24.32,18.12s12.32,17.47,12.32,29.84-5.65,22.46-12.32,29.85c-6.46,7.15-14.89,13-24,17.93A68.44,68.44,0,0,1,299.13,890c5,5.56,8.46,12.22,8.46,19.79s-3.44,14.24-8.46,19.8-11.91,10.44-20.3,15c-11.73,6.32-27.2,12.31-46.26,17.93,20.28,5.92,37.22,12.4,50.38,19.48,9.21,5,17.78,10.88,24.32,18.12s12.32,17.48,12.32,29.85-5.65,22.45-12.32,29.84c-6.46,7.15-14.89,13-24,17.93a68.44,68.44,0,0,1,15.83,12.43c5,5.56,8.46,12.22,8.46,19.8s-3.44,14.23-8.46,19.79-11.91,10.44-20.3,15c-11.73,6.32-27.2,12.31-46.26,17.94,20.28,5.92,37.22,12.39,50.38,19.48,9.21,5,17.78,10.87,24.32,18.11s12.32,17.48,12.32,29.85-5.65,22.45-12.32,29.85c-6.46,7.15-14.89,13-24,17.92a68.44,68.44,0,0,1,15.83,12.43c5,5.56,8.46,12.22,8.46,19.8s-3.44,14.23-8.46,19.79-11.91,10.45-20.3,15c-11.73,6.32-27.2,12.31-46.26,17.93,20.28,5.92,37.22,12.39,50.38,19.48,9.21,5,17.78,10.87,24.32,18.12s12.32,17.47,12.32,29.84-5.65,22.46-12.32,29.85c-6.46,7.15-14.89,13-24,17.93a68.44,68.44,0,0,1,15.83,12.43c5,5.56,8.46,12.22,8.46,19.79s-3.44,14.24-8.46,19.8-11.91,10.44-20.3,15c-16.78,9-41.25,17.42-72.92,25l-3,.73Zm11.15-154.17,5.27,1.29c21.82-6,37.62-12,48.05-17.58a69.57,69.57,0,0,0,6.52-4,67.68,67.68,0,0,0-6.52-3.94c-12.88-6.94-34-14.47-64.47-21.78a447.66,447.66,0,0,1-50.32-14.81q-3.54,1.66-6.61,3.31c-7.28,3.93-12.08,7.58-15,10.76s-3.29,5.21-3.29,6.4.48,3.27,3.29,6.39,7.67,6.83,15,10.76C152.38,1435.12,174.91,1443,205.91,1450.43Zm0-200.13c1.78.43,3.54.85,5.27,1.29,21.82-6,37.62-12,48.05-17.58a69.57,69.57,0,0,0,6.52-4,69.57,69.57,0,0,0-6.52-4c-12.88-6.94-34-14.46-64.47-21.77a449.76,449.76,0,0,1-50.32-14.81c-2.36,1.1-4.56,2.21-6.61,3.31-7.28,3.92-12.08,7.58-15,10.76s-3.29,5.21-3.29,6.39.48,3.28,3.29,6.4,7.67,6.83,15,10.75C152.38,1235,174.91,1242.87,205.91,1250.3Zm.5,54.1c20.51-4.91,38.48-10.24,53.6-16q5.12,2.28,9.33,4.55c7.28,3.92,12.08,7.58,15,10.76s3.3,5.21,3.3,6.39-.49,3.28-3.3,6.39-7.67,6.84-15,10.76c-14.55,7.84-37.08,15.73-68.08,23.16q-4.27,1-8.37,2.06c-23.33-6.21-40.07-12.49-50.94-18.36a66.77,66.77,0,0,1-6.53-3.94,66.58,66.58,0,0,1,6.53-4C154.82,1319.24,175.9,1311.71,206.41,1304.4Zm-.5-254.23q2.67.63,5.27,1.28c21.82-6,37.62-12,48.05-17.58a67.68,67.68,0,0,0,6.52-3.94,67.48,67.48,0,0,0-6.52-4c-12.88-6.94-34-14.47-64.47-21.77a451.89,451.89,0,0,1-50.32-14.81q-3.54,1.65-6.61,3.31c-7.28,3.92-12.08,7.58-15,10.76s-3.29,5.21-3.29,6.39.48,3.28,3.29,6.39,7.67,6.84,15,10.76C152.38,1034.85,174.91,1042.74,205.91,1050.17Zm.5,54.1c20.51-4.91,38.48-10.24,53.6-16q5.12,2.26,9.33,4.54c7.28,3.93,12.08,7.59,15,10.76s3.3,5.21,3.3,6.4-.49,3.27-3.3,6.39-7.67,6.83-15,10.76c-14.55,7.84-37.08,15.73-68.08,23.15-2.85.69-5.64,1.37-8.37,2.07-23.33-6.22-40.07-12.5-50.94-18.36a68.61,68.61,0,0,1-6.53-4,66.77,66.77,0,0,1,6.53-3.94C154.82,1119.11,175.9,1111.58,206.41,1104.27ZM205.91,850l5.27,1.29c21.82-6,37.62-12,48.05-17.58a67.48,67.48,0,0,0,6.52-4,67.68,67.68,0,0,0-6.52-3.94c-12.88-6.94-34-14.47-64.47-21.78a447.66,447.66,0,0,1-50.32-14.81q-3.54,1.66-6.61,3.31c-7.28,3.93-12.08,7.59-15,10.76s-3.29,5.21-3.29,6.4.48,3.27,3.29,6.39,7.67,6.83,15,10.76C152.38,834.72,174.91,842.61,205.91,850Zm.5,54.11c20.51-4.91,38.48-10.25,53.6-16q5.12,2.28,9.33,4.55c7.28,3.93,12.08,7.58,15,10.76s3.3,5.21,3.3,6.39-.49,3.28-3.3,6.4-7.67,6.83-15,10.75c-14.55,7.85-37.08,15.74-68.08,23.16q-4.27,1-8.37,2.07c-23.33-6.22-40.07-12.5-50.94-18.36a68.61,68.61,0,0,1-6.53-3.95,68.61,68.61,0,0,1,6.53-4C154.82,919,175.9,911.45,206.41,904.14Zm-.5-254.24,5.27,1.29c21.82-6,37.62-12,48.05-17.58a69.57,69.57,0,0,0,6.52-4,69.57,69.57,0,0,0-6.52-3.95c-12.88-6.94-34-14.46-64.47-21.77a449.76,449.76,0,0,1-50.32-14.81c-2.36,1.1-4.56,2.21-6.61,3.31-7.28,3.93-12.08,7.58-15,10.76s-3.29,5.21-3.29,6.39.48,3.28,3.29,6.4,7.67,6.83,15,10.75C152.38,634.59,174.91,642.48,205.91,649.9Zm.5,54.11c20.51-4.92,38.48-10.25,53.6-16q5.12,2.28,9.33,4.55c7.28,3.92,12.08,7.58,15,10.76s3.3,5.21,3.3,6.39-.49,3.28-3.3,6.39-7.67,6.84-15,10.76c-14.55,7.84-37.08,15.73-68.08,23.16q-4.27,1-8.37,2.06c-23.33-6.21-40.07-12.49-50.94-18.36a66.77,66.77,0,0,1-6.53-3.94,66.58,66.58,0,0,1,6.53-4C154.82,718.84,175.9,711.31,206.41,704Zm-.5-254.24q2.67.63,5.27,1.28c21.82-6,37.62-12,48.05-17.58a67.68,67.68,0,0,0,6.52-3.94,67.48,67.48,0,0,0-6.52-3.95c-12.88-6.94-34-14.47-64.47-21.77A451.89,451.89,0,0,1,144.44,389q-3.54,1.65-6.61,3.31c-7.28,3.92-12.08,7.58-15,10.76s-3.29,5.21-3.29,6.39.48,3.28,3.29,6.39,7.67,6.84,15,10.76C152.38,434.45,174.91,442.34,205.91,449.77Zm.5,54.1c20.51-4.91,38.48-10.24,53.6-16q5.12,2.26,9.33,4.54c7.28,3.93,12.08,7.59,15,10.76s3.3,5.21,3.3,6.4-.49,3.27-3.3,6.39-7.67,6.83-15,10.76c-14.55,7.84-37.08,15.73-68.08,23.15q-4.27,1-8.37,2.07c-23.33-6.22-40.07-12.5-50.94-18.36a66.58,66.58,0,0,1-6.53-3.95,66.77,66.77,0,0,1,6.53-3.94C154.82,518.71,175.9,511.18,206.41,503.87Zm-.5-254.24,5.27,1.29c21.82-6,37.62-12,48.05-17.58a67.48,67.48,0,0,0,6.52-4,67.68,67.68,0,0,0-6.52-3.94c-12.88-6.94-34-14.47-64.47-21.78a447.66,447.66,0,0,1-50.32-14.81q-3.54,1.66-6.61,3.31c-7.28,3.93-12.08,7.59-15,10.76s-3.29,5.21-3.29,6.4.48,3.27,3.29,6.39,7.67,6.83,15,10.76C152.38,234.32,174.91,242.21,205.91,249.63Zm.5,54.11c20.51-4.91,38.48-10.25,53.6-16.05q5.12,2.28,9.33,4.55c7.28,3.93,12.08,7.58,15,10.76s3.3,5.21,3.3,6.39-.49,3.28-3.3,6.4-7.67,6.83-15,10.75c-14.55,7.85-37.08,15.74-68.08,23.16q-4.27,1-8.37,2.07c-23.33-6.22-40.07-12.5-50.94-18.36a68.61,68.61,0,0,1-6.53-4,68.61,68.61,0,0,1,6.53-3.95C154.82,318.57,175.9,311.05,206.41,303.74Zm287.84-41.18,1.13,9-1-7.77C494.31,263.38,494.28,263,494.25,262.56Zm-.07-.05.17,1.27c5.37,61,63.3,60.9,63.3,60.9,64.92-.58,65.38-62.77,65.38-62.77-1.06-66.86-68.17-66.86-68.17-66.86V149.29c121.85,5.82,113.61,118.49,113.61,118.49-10.6,102.08-101.83,103.41-101.83,103.41-93.58,3.41-112.95-75.83-112.95-75.83C423,378.06,342.59,371,342.59,371V156.9h14V358.31C441.28,346.39,446,261.86,446,261.86h18.24c8.23,95,94.76,96.21,94.76,96.21,94.77-6.1,95.06-96.21,95.06-96.21-.59-85.64-84.47-96.77-84.47-96.77v18.76c70.13,9.57,67.7,78,67.7,78-4.12,78.32-79.63,77.74-79.63,77.74-74.46-1.24-77-77.09-77-77.09ZM901.91,203c-10.53,15.5-18,36-19.16,63.23,0,0-1.7,35.31,19.11,66.71a69.65,69.65,0,0,1-10.31,1v46.36c21.19-1,38.45-5.34,52.49-11.76,13.57,6.17,30.14,10.43,50.36,11.71v-16a109.28,109.28,0,0,1-32.74-5.91A95.3,95.3,0,0,0,975.56,346a125.4,125.4,0,0,0,18.34,3.21V334.41a60.9,60.9,0,0,1-8.43-1c22.35-33.71,19.51-73.14,19.51-73.14-2.54-24.85-9.73-43.81-19.19-58.27,2.3-.34,4.7-.61,7.19-.78l.09-15.45a81.85,81.85,0,0,0-18,2.61,98.13,98.13,0,0,0-13.17-11.74,126.63,126.63,0,0,1,31.14-5.45V155.29a133.23,133.23,0,0,0-47.16,11.55,110.17,110.17,0,0,0-42.61-11.37C809.87,152,790.52,232.3,790.52,232.3c-30.62-83.8-110.93-76.66-110.93-76.66v217h13.94V168.51c84.64,12.1,89.34,97.68,89.34,97.68h18.18c8.22-96.29,94.62-97.49,94.62-97.49a119.07,119.07,0,0,1,34.09,7,102.07,102.07,0,0,0-17.17,14.17,84.59,84.59,0,0,0-18.26-2.43c-74.35,1.24-76.9,78.09-76.9,78.09H831l.18-1.37c0,.45-.08.91-.11,1.37l1.13-9.11-1,7.74c5.44-61.67,63.2-61.57,63.2-61.57C897,202.61,899.49,202.74,901.91,203Zm16.59,3.39c-20.8,27.1-20.08,59.85-20.08,59.85.88,28,8.91,48,20,62.24a70.05,70.05,0,0,0,14.67-7.63c-20.37-23.75-18.91-53.36-18.91-53.36,1.16-24.65,8.79-41.86,18.89-53.88A57.21,57.21,0,0,0,918.5,206.35Zm26.3,18.23c-15,19.12-15,42.88-15,42.88.59,19.56,6.59,33.4,14.7,43.21,8.59-10,14.83-24.18,15.15-44.48C959.61,266.19,959.44,243,944.8,224.58Zm10.07,95.92c20.07-23.43,19-54.31,19-54.31-1.22-23.65-8.78-40.2-18.78-51.78A60,60,0,0,1,970.18,206c20.31,27.57,20.41,60.19,20.41,60.19-.19,28-9,48.13-20.94,62.56A68.39,68.39,0,0,1,954.87,320.5Zm-11.19,10.39a71.28,71.28,0,0,1-15.11,8.46,89.15,89.15,0,0,0,15.36,11A101.39,101.39,0,0,0,958.62,340,79.08,79.08,0,0,1,943.68,330.89Zm-17,27.71a96.91,96.91,0,0,1-15.85-14.11c-1.5.28-3,.52-4.6.74v19A102.69,102.69,0,0,0,926.69,358.6Zm32.66-164.77a78.51,78.51,0,0,0-16,9.79,78,78,0,0,0-14.58-8.37,84.24,84.24,0,0,1,16.9-11.84A86.27,86.27,0,0,1,959.35,193.83Zm53.45-35.7s87.4,3.45,89.72,108.06c0,0,5.89,91.59-89.6,111.08V361.15s71.61-12,73.91-95c0,0-.73-78.17-73.72-92.3Z"/></g></g></mask></defs><path class="cls-2" d="M142,1534.21c10.87,5.86,27.61,12.14,50.94,18.36q4.1-1,8.37-2.07c31-7.43,53.53-15.31,68.08-23.16,7.28-3.92,12.08-7.58,15-10.75s3.3-5.22,3.3-6.4-.49-3.27-3.3-6.39-7.67-6.84-15-10.76q-4.21-2.26-9.33-4.55c-15.12,5.8-33.09,11.14-53.6,16-30.51,7.31-51.59,14.83-64.46,21.77a68.61,68.61,0,0,0-6.53,4A68.61,68.61,0,0,0,142,1534.21Zm52.81,70.39a449.88,449.88,0,0,1-50.32-14.8q-3.54,1.65-6.61,3.31c-7.28,3.92-12.08,7.58-15,10.76s-3.29,5.21-3.29,6.39.48,3.28,3.29,6.39,7.67,6.84,15,10.76c14.55,7.84,37.08,15.73,68.08,23.16L201.26,1670c-31.67-7.59-56.14-16-72.92-25-8.38-4.52-15.34-9.46-20.3-15s-8.45-12.22-8.45-19.79S103,1596,108,1590.46a64.14,64.14,0,0,1,13.08-10.72c-1-.5-2-1-2.9-1.52-9.21-5-17.78-10.87-24.32-18.11-6.67-7.4-12.31-17.48-12.31-29.85s5.64-22.46,12.31-29.85,15.11-13.15,24.32-18.11c13.81-7.44,31.79-14.21,53.44-20.36-17.72-5.37-32.2-11.07-43.32-17.06-8.38-4.52-15.34-9.46-20.3-15s-8.45-12.22-8.45-19.79,3.43-14.24,8.45-19.8a64.5,64.5,0,0,1,13.08-10.73c-1-.5-2-1-2.9-1.51-9.21-5-17.78-10.87-24.32-18.12s-12.31-17.48-12.31-29.84,5.64-22.46,12.31-29.85c6.54-7.24,15.11-13.15,24.32-18.12,13.81-7.44,31.79-14.2,53.44-20.36-17.72-5.36-32.2-11.06-43.32-17-8.38-4.52-15.34-9.46-20.3-15s-8.45-12.22-8.45-19.8,3.43-14.23,8.45-19.79a64.5,64.5,0,0,1,13.08-10.73c-1-.5-2-1-2.9-1.52-9.21-5-17.78-10.87-24.32-18.11S81.59,1142.36,81.59,1130s5.64-22.45,12.31-29.84S109,1087,118.22,1082c13.81-7.44,31.79-14.2,53.44-20.36-17.72-5.37-32.2-11.06-43.32-17.05-8.38-4.52-15.34-9.46-20.3-15s-8.45-12.22-8.45-19.79,3.43-14.24,8.45-19.8a64.14,64.14,0,0,1,13.08-10.72c-1-.5-2-1-2.9-1.52-9.21-5-17.78-10.87-24.32-18.11-6.67-7.4-12.31-17.48-12.31-29.85S87.23,907.41,93.9,900c6.54-7.24,15.11-13.15,24.32-18.11,13.81-7.44,31.79-14.21,53.44-20.36-17.72-5.37-32.2-11.07-43.32-17.06C120,840,113,835,108,829.52s-8.45-12.22-8.45-19.79,3.43-14.24,8.45-19.8a64.14,64.14,0,0,1,13.08-10.72c-1-.51-2-1-2.9-1.52-9.21-5-17.78-10.87-24.32-18.12s-12.31-17.48-12.31-29.84,5.64-22.46,12.31-29.85,15.11-13.15,24.32-18.12c13.81-7.44,31.79-14.2,53.44-20.36-17.72-5.36-32.2-11.06-43.32-17-8.38-4.52-15.34-9.46-20.3-15s-8.45-12.22-8.45-19.8S103,595.36,108,589.8a64.5,64.5,0,0,1,13.08-10.73c-1-.5-2-1-2.9-1.51-9.21-5-17.78-10.88-24.32-18.12-6.67-7.39-12.31-17.48-12.31-29.85s5.64-22.45,12.31-29.84S109,486.6,118.22,481.63c13.81-7.44,31.79-14.2,53.44-20.36-17.72-5.37-32.2-11.06-43.32-17-8.38-4.52-15.34-9.46-20.3-15S99.59,417,99.59,409.46s3.43-14.24,8.45-19.8a64.14,64.14,0,0,1,13.08-10.72c-1-.5-2-1-2.9-1.52-9.21-5-17.78-10.87-24.32-18.11-6.67-7.4-12.31-17.48-12.31-29.85S87.23,307,93.9,299.61c6.54-7.24,15.11-13.15,24.32-18.11,13.81-7.44,31.79-14.21,53.44-20.36-17.72-5.37-32.2-11.07-43.32-17.06-8.38-4.52-15.34-9.46-20.3-15s-8.45-12.22-8.45-19.79,3.43-14.24,8.45-19.8a64.14,64.14,0,0,1,13.08-10.72c-1-.51-2-1-2.9-1.52-9.21-5-17.78-10.87-24.32-18.12s-12.31-17.48-12.31-29.84,5.64-22.46,12.31-29.85S109,86.33,118.22,81.36c18.46-9.94,44.39-18.68,76.54-26.38l11.65,48.63c-30.51,7.3-51.59,14.83-64.46,21.77a66.58,66.58,0,0,0-6.53,4,66.77,66.77,0,0,0,6.53,3.94c10.87,5.87,27.61,12.15,50.94,18.36q4.1-1,8.37-2.06l1.07,4.49,4.08,1c32.16,7.7,58.08,16.43,76.54,26.38,9.21,5,17.78,10.87,24.32,18.12s12.32,17.47,12.32,29.84-5.65,22.46-12.32,29.85c-6.46,7.15-14.89,13-24,17.93a68.44,68.44,0,0,1,15.83,12.43c5,5.56,8.46,12.22,8.46,19.79s-3.44,14.24-8.46,19.8-11.91,10.44-20.3,15c-11.73,6.32-27.2,12.31-46.26,17.93,20.28,5.92,37.22,12.4,50.38,19.48,9.21,5,17.78,10.88,24.32,18.12s12.32,17.48,12.32,29.85-5.65,22.45-12.32,29.84c-6.46,7.15-14.89,13-24,17.93a68.44,68.44,0,0,1,15.83,12.43c5,5.56,8.46,12.22,8.46,19.8s-3.44,14.23-8.46,19.79-11.91,10.44-20.3,15c-11.73,6.32-27.2,12.31-46.26,17.94,20.28,5.92,37.22,12.39,50.38,19.48,9.21,5,17.78,10.87,24.32,18.11,6.67,7.4,12.32,17.48,12.32,29.85s-5.65,22.45-12.32,29.85c-6.46,7.15-14.89,13-24,17.92a68.44,68.44,0,0,1,15.83,12.43c5,5.56,8.46,12.23,8.46,19.8s-3.44,14.23-8.46,19.79-11.91,10.45-20.3,15c-11.73,6.32-27.2,12.31-46.26,17.93,20.28,5.92,37.22,12.39,50.38,19.48,9.21,5,17.78,10.87,24.32,18.12s12.32,17.47,12.32,29.84-5.65,22.46-12.32,29.85c-6.46,7.15-14.89,13-24,17.93A68.44,68.44,0,0,1,299.13,890c5,5.56,8.46,12.22,8.46,19.79s-3.44,14.24-8.46,19.8-11.91,10.44-20.3,15c-11.73,6.32-27.2,12.31-46.26,17.93,20.28,5.92,37.22,12.4,50.38,19.48,9.21,5,17.78,10.88,24.32,18.12s12.32,17.48,12.32,29.85-5.65,22.45-12.32,29.84c-6.46,7.15-14.89,13-24,17.93a68.44,68.44,0,0,1,15.83,12.43c5,5.56,8.46,12.22,8.46,19.8s-3.44,14.23-8.46,19.79-11.91,10.44-20.3,15c-11.73,6.32-27.2,12.31-46.26,17.94,20.28,5.92,37.22,12.39,50.38,19.48,9.21,5,17.78,10.87,24.32,18.11s12.32,17.48,12.32,29.85-5.65,22.45-12.32,29.85c-6.46,7.15-14.89,13-24,17.92a68.44,68.44,0,0,1,15.83,12.43c5,5.56,8.46,12.22,8.46,19.8s-3.44,14.23-8.46,19.79-11.91,10.45-20.3,15c-11.73,6.32-27.2,12.31-46.26,17.93,20.28,5.92,37.22,12.39,50.38,19.48,9.21,5,17.78,10.87,24.32,18.12s12.32,17.47,12.32,29.84-5.65,22.46-12.32,29.85c-6.46,7.15-14.89,13-24,17.93a68.44,68.44,0,0,1,15.83,12.43c5,5.56,8.46,12.22,8.46,19.79s-3.44,14.24-8.46,19.8-11.91,10.44-20.3,15c-16.78,9-41.25,17.42-72.92,25l-3,.73Zm11.15-154.17,5.27,1.29c21.82-6,37.62-12,48.05-17.58a69.57,69.57,0,0,0,6.52-4,67.68,67.68,0,0,0-6.52-3.94c-12.88-6.94-34-14.47-64.47-21.78a447.66,447.66,0,0,1-50.32-14.81q-3.54,1.66-6.61,3.31c-7.28,3.93-12.08,7.58-15,10.76s-3.29,5.21-3.29,6.4.48,3.27,3.29,6.39,7.67,6.83,15,10.76C152.38,1435.12,174.91,1443,205.91,1450.43Zm0-200.13c1.78.43,3.54.85,5.27,1.29,21.82-6,37.62-12,48.05-17.58a69.57,69.57,0,0,0,6.52-4,69.57,69.57,0,0,0-6.52-4c-12.88-6.94-34-14.46-64.47-21.77a449.76,449.76,0,0,1-50.32-14.81c-2.36,1.1-4.56,2.21-6.61,3.31-7.28,3.92-12.08,7.58-15,10.76s-3.29,5.21-3.29,6.39.48,3.28,3.29,6.4,7.67,6.83,15,10.75C152.38,1235,174.91,1242.87,205.91,1250.3Zm.5,54.1c20.51-4.91,38.48-10.24,53.6-16q5.12,2.28,9.33,4.55c7.28,3.92,12.08,7.58,15,10.76s3.3,5.21,3.3,6.39-.49,3.28-3.3,6.39-7.67,6.84-15,10.76c-14.55,7.84-37.08,15.73-68.08,23.16q-4.27,1-8.37,2.06c-23.33-6.21-40.07-12.49-50.94-18.36a66.77,66.77,0,0,1-6.53-3.94,66.58,66.58,0,0,1,6.53-4C154.82,1319.24,175.9,1311.71,206.41,1304.4Zm-.5-254.23q2.67.63,5.27,1.28c21.82-6,37.62-12,48.05-17.58a67.68,67.68,0,0,0,6.52-3.94,67.48,67.48,0,0,0-6.52-4c-12.88-6.94-34-14.47-64.47-21.77a451.89,451.89,0,0,1-50.32-14.81q-3.54,1.65-6.61,3.31c-7.28,3.92-12.08,7.58-15,10.76s-3.29,5.21-3.29,6.39.48,3.28,3.29,6.39,7.67,6.84,15,10.76C152.38,1034.85,174.91,1042.74,205.91,1050.17Zm.5,54.1c20.51-4.91,38.48-10.24,53.6-16q5.12,2.26,9.33,4.54c7.28,3.93,12.08,7.59,15,10.76s3.3,5.21,3.3,6.4-.49,3.27-3.3,6.39-7.67,6.83-15,10.76c-14.55,7.84-37.08,15.73-68.08,23.15-2.85.69-5.64,1.37-8.37,2.07-23.33-6.22-40.07-12.5-50.94-18.36a68.61,68.61,0,0,1-6.53-4,66.77,66.77,0,0,1,6.53-3.94C154.82,1119.11,175.9,1111.58,206.41,1104.27ZM205.91,850l5.27,1.29c21.82-6,37.62-12,48.05-17.58a67.48,67.48,0,0,0,6.52-4,67.68,67.68,0,0,0-6.52-3.94c-12.88-6.94-34-14.47-64.47-21.78a447.66,447.66,0,0,1-50.32-14.81q-3.54,1.66-6.61,3.31c-7.28,3.93-12.08,7.59-15,10.76s-3.29,5.21-3.29,6.4.48,3.27,3.29,6.39,7.67,6.83,15,10.76C152.38,834.72,174.91,842.61,205.91,850Zm.5,54.11c20.51-4.91,38.48-10.25,53.6-16q5.12,2.28,9.33,4.55c7.28,3.93,12.08,7.58,15,10.76s3.3,5.21,3.3,6.39-.49,3.28-3.3,6.4-7.67,6.83-15,10.75c-14.55,7.85-37.08,15.74-68.08,23.16q-4.27,1-8.37,2.07c-23.33-6.22-40.07-12.5-50.94-18.36a68.61,68.61,0,0,1-6.53-3.95,68.61,68.61,0,0,1,6.53-4C154.82,919,175.9,911.45,206.41,904.14Zm-.5-254.24,5.27,1.29c21.82-6,37.62-12,48.05-17.58a69.57,69.57,0,0,0,6.52-4,69.57,69.57,0,0,0-6.52-3.95c-12.88-6.94-34-14.46-64.47-21.77a449.76,449.76,0,0,1-50.32-14.81c-2.36,1.1-4.56,2.21-6.61,3.31-7.28,3.93-12.08,7.58-15,10.76s-3.29,5.21-3.29,6.39.48,3.28,3.29,6.4,7.67,6.83,15,10.75C152.38,634.59,174.91,642.48,205.91,649.9Zm.5,54.11c20.51-4.92,38.48-10.25,53.6-16q5.12,2.28,9.33,4.55c7.28,3.92,12.08,7.58,15,10.76s3.3,5.21,3.3,6.39-.49,3.28-3.3,6.39-7.67,6.84-15,10.76c-14.55,7.84-37.08,15.73-68.08,23.16q-4.27,1-8.37,2.06c-23.33-6.21-40.07-12.49-50.94-18.36a66.77,66.77,0,0,1-6.53-3.94,66.58,66.58,0,0,1,6.53-4C154.82,718.84,175.9,711.31,206.41,704Zm-.5-254.24q2.67.63,5.27,1.28c21.82-6,37.62-12,48.05-17.58a67.68,67.68,0,0,0,6.52-3.94,67.48,67.48,0,0,0-6.52-3.95c-12.88-6.94-34-14.47-64.47-21.77A451.89,451.89,0,0,1,144.44,389q-3.54,1.65-6.61,3.31c-7.28,3.92-12.08,7.58-15,10.76s-3.29,5.21-3.29,6.39.48,3.28,3.29,6.39,7.67,6.84,15,10.76C152.38,434.45,174.91,442.34,205.91,449.77Zm.5,54.1c20.51-4.91,38.48-10.24,53.6-16q5.12,2.26,9.33,4.54c7.28,3.93,12.08,7.59,15,10.76s3.3,5.21,3.3,6.4-.49,3.27-3.3,6.39-7.67,6.83-15,10.76c-14.55,7.84-37.08,15.73-68.08,23.15q-4.27,1-8.37,2.07c-23.33-6.22-40.07-12.5-50.94-18.36a66.58,66.58,0,0,1-6.53-3.95,66.77,66.77,0,0,1,6.53-3.94C154.82,518.71,175.9,511.18,206.41,503.87Zm-.5-254.24,5.27,1.29c21.82-6,37.62-12,48.05-17.58a67.48,67.48,0,0,0,6.52-4,67.68,67.68,0,0,0-6.52-3.94c-12.88-6.94-34-14.47-64.47-21.78a447.66,447.66,0,0,1-50.32-14.81q-3.54,1.66-6.61,3.31c-7.28,3.93-12.08,7.59-15,10.76s-3.29,5.21-3.29,6.4.48,3.27,3.29,6.39,7.67,6.83,15,10.76C152.38,234.32,174.91,242.21,205.91,249.63Zm.5,54.11c20.51-4.91,38.48-10.25,53.6-16.05q5.12,2.28,9.33,4.55c7.28,3.93,12.08,7.58,15,10.76s3.3,5.21,3.3,6.39-.49,3.28-3.3,6.4-7.67,6.83-15,10.75c-14.55,7.85-37.08,15.74-68.08,23.16q-4.27,1-8.37,2.07c-23.33-6.22-40.07-12.5-50.94-18.36a68.61,68.61,0,0,1-6.53-4,68.61,68.61,0,0,1,6.53-3.95C154.82,318.57,175.9,311.05,206.41,303.74Zm287.84-41.18,1.13,9-1-7.77C494.31,263.38,494.28,263,494.25,262.56Zm-.07-.05.17,1.27c5.37,61,63.3,60.9,63.3,60.9,64.92-.58,65.38-62.77,65.38-62.77-1.06-66.86-68.17-66.86-68.17-66.86V149.29c121.85,5.82,113.61,118.49,113.61,118.49-10.6,102.08-101.83,103.41-101.83,103.41-93.58,3.41-112.95-75.83-112.95-75.83C423,378.06,342.59,371,342.59,371V156.9h14V358.31C441.28,346.39,446,261.86,446,261.86h18.24c8.23,95,94.76,96.21,94.76,96.21,94.77-6.1,95.06-96.21,95.06-96.21-.59-85.64-84.47-96.77-84.47-96.77v18.76c70.13,9.57,67.7,78,67.7,78-4.12,78.32-79.63,77.74-79.63,77.74-74.46-1.24-77-77.09-77-77.09ZM901.91,203c-10.53,15.5-18,36-19.16,63.23,0,0-1.7,35.31,19.11,66.71a69.65,69.65,0,0,1-10.31,1v46.36c21.19-1,38.45-5.34,52.49-11.76,13.57,6.17,30.14,10.43,50.36,11.71v-16a109.28,109.28,0,0,1-32.74-5.91A95.3,95.3,0,0,0,975.56,346a125.4,125.4,0,0,0,18.34,3.21V334.41a60.9,60.9,0,0,1-8.43-1c22.35-33.71,19.51-73.14,19.51-73.14-2.54-24.85-9.73-43.81-19.19-58.27,2.3-.34,4.7-.61,7.19-.78l.09-15.45a81.85,81.85,0,0,0-18,2.61,98.13,98.13,0,0,0-13.17-11.74,126.63,126.63,0,0,1,31.14-5.45V155.29a133.23,133.23,0,0,0-47.16,11.55,110.17,110.17,0,0,0-42.61-11.37C809.87,152,790.52,232.3,790.52,232.3c-30.62-83.8-110.93-76.66-110.93-76.66v217h13.94V168.51c84.64,12.1,89.34,97.68,89.34,97.68h18.18c8.22-96.29,94.62-97.49,94.62-97.49a119.07,119.07,0,0,1,34.09,7,102.07,102.07,0,0,0-17.17,14.17,84.59,84.59,0,0,0-18.26-2.43c-74.35,1.24-76.9,78.09-76.9,78.09H831l.18-1.37c0,.45-.08.91-.11,1.37l1.13-9.11-1,7.74c5.44-61.67,63.2-61.57,63.2-61.57C897,202.61,899.49,202.74,901.91,203Zm16.59,3.39c-20.8,27.1-20.08,59.85-20.08,59.85.88,28,8.91,48,20,62.24a70.05,70.05,0,0,0,14.67-7.63c-20.37-23.75-18.91-53.36-18.91-53.36,1.16-24.65,8.79-41.86,18.89-53.88A57.21,57.21,0,0,0,918.5,206.35Zm26.3,18.23c-15,19.12-15,42.88-15,42.88.59,19.56,6.59,33.4,14.7,43.21,8.59-10,14.83-24.18,15.15-44.48C959.61,266.19,959.44,243,944.8,224.58Zm10.07,95.92c20.07-23.43,19-54.31,19-54.31-1.22-23.65-8.78-40.2-18.78-51.78A60,60,0,0,1,970.18,206c20.31,27.57,20.41,60.19,20.41,60.19-.19,28-9,48.13-20.94,62.56A68.39,68.39,0,0,1,954.87,320.5Zm-11.19,10.39a71.28,71.28,0,0,1-15.11,8.46,89.15,89.15,0,0,0,15.36,11A101.39,101.39,0,0,0,958.62,340,79.08,79.08,0,0,1,943.68,330.89Zm-17,27.71a96.91,96.91,0,0,1-15.85-14.11c-1.5.28-3,.52-4.6.74v19A102.69,102.69,0,0,0,926.69,358.6Zm32.66-164.77a78.51,78.51,0,0,0-16,9.79,78,78,0,0,0-14.58-8.37,84.24,84.24,0,0,1,16.9-11.84A86.27,86.27,0,0,1,959.35,193.83Zm53.45-35.7s87.4,3.45,89.72,108.06c0,0,5.89,91.59-89.6,111.08V361.15s71.61-12,73.91-95c0,0-.73-78.17-73.72-92.3Z" transform="translate(-77.59 -50.16)"/><g class="cls-3"><path class="cls-4" d="M192.89,1552.57l-1,3.86,1,.27,1-.26ZM142,1534.21l1.89-3.52h0Zm59.31,16.29-.94-3.89h0Zm68.08-23.16-1.9-3.52h0Zm15-10.75-3-2.68h0Zm0-12.79-3,2.68h0Zm-15-10.76,1.9-3.52h0Zm-9.33-4.55,1.62-3.65-1.51-.67-1.54.59Zm-53.6,16-.93-3.89h0ZM142,1526.31l1.89,3.52h0Zm-6.53,4-2.28-3.29-4.74,3.29,4.74,3.29Zm9,59.54,1.39-3.76-1.57-.57-1.51.7Zm50.32,14.8-.93,3.89,3.89.94.93-3.89Zm-56.93-11.49,1.9,3.52h0Zm-15,10.76,3,2.68h0Zm0,12.78,3-2.68h0Zm15,10.76,1.9-3.52h0Zm68.08,23.16,3.89.93.94-3.89-3.89-.93ZM201.26,1670l-.94,3.89,3.89.93.94-3.89Zm-72.92-25-1.9,3.52h0Zm-20.3-15-3,2.68h0Zm0-39.59-3-2.68h0Zm13.08-10.72,2.15,3.36,5.87-3.75-6.2-3.17Zm-2.9-1.52,1.9-3.52h0ZM93.9,1560.11l-3,2.68h0Zm0-59.7-3-2.68h0Zm24.32-18.11-1.89-3.52h0Zm53.44-20.36,1.09,3.84,13.1-3.72-13-4Zm-43.32-17.06-1.9,3.52h0Zm-20.3-15,3-2.68h0Zm0-39.59,3,2.68h0Zm13.08-10.73,2.15,3.37,5.87-3.76-6.2-3.17Zm-2.9-1.51,1.9-3.52h0ZM93.9,1360l-3,2.68h0Zm0-59.69,3,2.68h0Zm24.32-18.12-1.89-3.52h0Zm53.44-20.36,1.09,3.85,13.1-3.73-13-4Zm-43.32-17,1.9-3.52h0Zm-20.3-15-3,2.68h0Zm0-39.59,3,2.68h0Zm13.08-10.73,2.15,3.37,5.87-3.76-6.2-3.17Zm-2.9-1.52,1.9-3.52h0ZM93.9,1159.84l-3,2.68h0Zm0-59.69-3-2.68h0ZM118.22,1082l1.9,3.52h0Zm53.44-20.36,1.09,3.85,13.1-3.73-13-4Zm-43.32-17.05-1.9,3.52h0Zm-20.3-15-3,2.69h0Zm0-39.59,3,2.68h0Zm13.08-10.72,2.15,3.37,5.86-3.76-6.19-3.17Zm-2.9-1.52-1.89,3.52h0ZM93.9,959.71l-3,2.68h0Zm0-59.7,3,2.68h0Zm24.32-18.11,1.9,3.52h0Zm53.44-20.36,1.09,3.84,13.1-3.72-13-3.95Zm-43.32-17.06-1.9,3.53h0Zm-20.3-15,3-2.68h0Zm0-39.59-3-2.68h0Zm13.08-10.72,2.15,3.36,5.86-3.76-6.19-3.17Zm-2.9-1.52-1.89,3.52h0ZM93.9,759.57l3-2.68h0Zm0-59.69-3-2.68h0Zm24.32-18.12,1.9,3.53h0Zm53.44-20.36,1.09,3.85,13.1-3.73-13-3.95Zm-43.32-17-1.9,3.52h0Zm-20.3-15,3-2.68h0Zm0-39.59,3,2.68h0Zm13.08-10.73,2.15,3.37,5.87-3.76-6.2-3.17Zm-2.9-1.51-1.89,3.52h0ZM93.9,559.44l-3,2.68h0Zm0-59.69-3-2.68h0Zm24.32-18.12-1.89-3.52h0Zm53.44-20.36,1.09,3.85,13.1-3.73-13-3.95Zm-43.32-17,1.9-3.52h0Zm-20.3-15,3-2.68h0Zm0-39.59,3,2.68h0Zm13.08-10.72,2.15,3.37,5.87-3.76-6.2-3.17Zm-2.9-1.52-1.89,3.52h0ZM93.9,359.31l-3,2.68h0Zm0-59.7-3-2.68h0Zm24.32-18.11,1.9,3.52h0Zm53.44-20.36,1.09,3.84,13.1-3.72-13-3.95Zm-43.32-17.06,1.9-3.52h0Zm-20.3-15-3,2.68h0Zm0-39.59-3-2.68h0Zm13.08-10.72,2.16,3.36,5.86-3.76-6.2-3.17Zm-2.9-1.52,1.9-3.52h0ZM93.9,159.17l3-2.68h0Zm0-59.69-3-2.68h0Zm24.32-18.12,1.9,3.53h0ZM194.76,55l3.89-.93-.93-3.89-3.89.93Zm11.65,48.63.93,3.89,3.89-.94-.93-3.89ZM142,125.38l1.89,3.52h0Zm-6.53,4L133.14,126l-4.74,3.29,4.74,3.28Zm6.53,3.94,1.89-3.52h0Zm50.94,18.36-1,3.87,1,.27,1-.26Zm8.37-2.06,3.89-.93-.94-3.89-3.89.93Zm1.07,4.49-3.89.93.57,2.36,2.36.59Zm4.08,1-.93,3.89h0ZM283,181.43l-1.9,3.52h0Zm24.32,18.12,3-2.68h0Zm0,59.69-3-2.68h0Zm-24,17.93-1.91-3.52L275.21,277l6,3.6Zm15.83,12.43,3-2.68h0Zm0,39.59-3-2.68h0Zm-20.3,15-1.9-3.52h0Zm-46.26,17.93-1.13-3.83-13.08,3.85,13.09,3.82ZM283,381.56l1.89-3.52h0Zm24.32,18.12,3-2.68h0Zm0,59.69,3,2.68h0Zm-24,17.93-1.91-3.52-6.18,3.35,6,3.6Zm15.83,12.43-3,2.68h0Zm0,39.59-3-2.68h0Zm-20.3,15-1.9-3.52h0Zm-46.26,17.94-1.13-3.84-13.08,3.86,13.09,3.82ZM283,581.7l-1.9,3.52h0Zm24.32,18.11,3-2.68h0Zm0,59.7,3,2.68h0Zm-24,17.92-1.91-3.51-6.18,3.35,6,3.6Zm15.83,12.43-3,2.68h0Zm0,39.59-3-2.68h0Zm-20.3,15-1.9-3.52h0Zm-46.26,17.93-1.13-3.84-13.08,3.86,13.09,3.82ZM283,781.83l1.89-3.52h0ZM307.27,800l-3,2.68h0Zm0,59.69-3-2.68h0Zm-24,17.93-1.91-3.52-6.18,3.35,6,3.6ZM299.13,890l3-2.68h0Zm0,39.59,3,2.68h0Zm-20.3,15,1.9,3.52h0Zm-46.26,17.93-1.13-3.83-13.08,3.85,13.09,3.82ZM283,982l-1.9,3.53h0Zm24.32,18.12,3-2.68h0Zm0,59.69,3,2.68h0Zm-24,17.93-1.91-3.52-6.18,3.35,6,3.6Zm15.83,12.43-3,2.68h0Zm0,39.59-3-2.68h0Zm-20.3,15-1.9-3.52h0Zm-46.26,17.94-1.13-3.84-13.08,3.86,13.09,3.82ZM283,1182.1l1.89-3.52h0Zm24.32,18.11,3-2.68h0Zm0,59.7,3,2.68h0Zm-24,17.92-1.91-3.51-6.18,3.35,6,3.6Zm15.83,12.43-3,2.68h0Zm0,39.59-3-2.68h0Zm-20.3,15,1.9,3.52h0Zm-46.26,17.93-1.13-3.84-13.08,3.86,13.09,3.82ZM283,1382.23l1.89-3.52h0Zm24.32,18.12-3,2.68h0Zm0,59.69,3,2.68h0Zm-24,17.93-1.91-3.52-6.18,3.35,6,3.6Zm15.83,12.43,3-2.68h0Zm0,39.59,3,2.68h0Zm-20.3,15,1.9,3.52h0Zm-72.92,25,.94,3.89h0Zm-3,.73-.95-3.88-2.37.58-.57,2.37Zm8.29-119-1,3.88,1,.25,1-.27Zm-5.27-1.29.94-3.89h0Zm53.32-16.29,1.89,3.52h0Zm6.52-4,2.28,3.29,4.74-3.29-4.74-3.28Zm-6.52-3.94-1.9,3.52h0Zm-64.47-21.78.93-3.89h0Zm-50.32-14.81,1.39-3.75-1.57-.58-1.51.71Zm-6.61,3.31-1.9-3.52h0Zm-15,10.76,3,2.68h0Zm0,12.79,3-2.68h0Zm15,10.76-1.9,3.52h0Zm73.35-175.69-1,3.88,1,.25,1-.28Zm-5.27-1.29.94-3.89h0ZM259.23,1234l1.89,3.52h0Zm6.52-4,2.28,3.29,4.74-3.29-4.74-3.29Zm-6.52-4-1.9,3.52h0Zm-64.47-21.77.93-3.89h0Zm-50.32-14.81,1.39-3.75-1.57-.58-1.51.71Zm-6.61,3.31-1.9-3.52h0Zm-15,10.76,3,2.68h0Zm0,12.79,3-2.68h0Zm15,10.75-1.9,3.53h0ZM260,1288.36l1.62-3.65-1.51-.68-1.54.6Zm-53.6,16-.93-3.89h0Zm62.93-11.49,1.9-3.52h0Zm15,10.76-3,2.68h0Zm0,12.78-3-2.68h0Zm-15,10.76,1.9,3.52h0Zm-68.08,23.16.93,3.89h0Zm-8.37,2.06-1,3.87,1,.27,1-.26ZM142,1334.07l-1.9,3.52h0Zm-6.53-3.94-2.28-3.29-4.74,3.29,4.74,3.28Zm6.53-4,1.89,3.52h0Zm69.23-274.73-1,3.88,1,.26,1-.28Zm-5.27-1.28.94-3.89h0Zm53.32-16.3,1.89,3.52h0Zm6.52-3.94,2.28,3.28,4.74-3.28-4.74-3.29Zm-6.52-4,1.89-3.52h0Zm-64.47-21.77.93-3.89h0ZM144.44,989.4l1.39-3.75-1.57-.58-1.51.7Zm-6.61,3.31-1.9-3.52h0Zm-15,10.76,3,2.68h0Zm0,12.78-3,2.68h0Zm15,10.76,1.9-3.52h0ZM260,1088.23l1.62-3.66-1.51-.67-1.54.59Zm-53.6,16,.93,3.89h0Zm62.93-11.5,1.9-3.52h0Zm15,10.76-3,2.68h0Zm0,12.79-3-2.68h0Zm-15,10.76-1.9-3.52h0Zm-68.08,23.15.93,3.89h0Zm-8.37,2.07-1,3.86,1,.27,1-.25ZM142,1133.94l1.89-3.52h0Zm-6.53-4-2.28-3.28L128.4,1130l4.74,3.29Zm6.53-3.94,1.89,3.52h0Zm69.23-274.73-1,3.88,1,.25,1-.27ZM205.91,850l.94-3.89h0Zm53.32-16.29,1.89,3.52h0Zm6.52-4,2.28,3.29,4.74-3.29L268,826.51Zm-6.52-3.94,1.89-3.53h0Zm-64.47-21.78-.93,3.89h0Zm-50.32-14.81,1.39-3.75-1.57-.58-1.51.71Zm-6.61,3.31,1.9,3.53h0Zm-15,10.76-3-2.68h0Zm0,12.79,3-2.68h0Zm15,10.76,1.9-3.52h0ZM260,888.09l1.62-3.65-1.51-.67-1.54.59Zm-53.6,16-.93-3.89h0Zm62.93-11.5,1.9-3.52h0Zm15,10.76-3,2.68h0Zm0,12.79-3-2.68h0Zm-15,10.75,1.9,3.53h0ZM201.26,950.1l.93,3.89h0Zm-8.37,2.07-1,3.86,1,.27,1-.26ZM142,933.81l-1.9,3.52h0Zm-6.53-3.95-2.28-3.29-4.74,3.29,4.74,3.29Zm6.53-4-1.9-3.52h0Zm69.23-274.72-1,3.88,1,.25,1-.28Zm-5.27-1.29.94-3.89h0Zm53.32-16.29,1.89,3.52h0Zm6.52-4L268,633l4.74-3.29L268,626.37Zm-6.52-3.95,1.89-3.52h0Zm-64.47-21.77.93-3.89h0Zm-50.32-14.81,1.39-3.75-1.57-.58-1.51.71Zm-6.61,3.31-1.9-3.52h0Zm-15,10.76-3-2.68h0Zm0,12.79,3-2.68h0Zm15,10.75-1.9,3.53h0ZM260,688l1.62-3.65-1.51-.68-1.54.6Zm-53.6,16,.93,3.89h0Zm62.93-11.5,1.9-3.52h0Zm15,10.76-3,2.68h0Zm0,12.78-3-2.68h0Zm-15,10.76-1.9-3.52h0ZM201.26,750l.93,3.89h0ZM192.89,752l-1,3.87,1,.27,1-.26ZM142,733.67l-1.9,3.52h0Zm-6.53-3.94-2.28-3.29-4.74,3.29,4.74,3.28Zm6.53-4-1.9-3.52h0Zm69.23-274.73-1,3.88,1,.26,1-.28Zm-5.27-1.28.94-3.89h0Zm53.32-16.3-1.9-3.52h0Zm6.52-3.94,2.28,3.28,4.74-3.28L268,426.24Zm-6.52-3.95-1.9,3.52h0Zm-64.47-21.77.93-3.89h0ZM144.44,389l1.39-3.75-1.57-.58-1.51.7Zm-6.61,3.31-1.9-3.52h0Zm-15,10.76,3,2.68h0Zm0,12.78-3,2.68h0Zm15,10.76-1.9,3.52h0ZM260,487.83l1.62-3.66-1.51-.67-1.54.59Zm-53.6,16-.93-3.89h0Zm62.93-11.5,1.9-3.52h0Zm15,10.76-3,2.68h0Zm0,12.79-3-2.68h0Zm-15,10.76,1.9,3.52h0Zm-68.08,23.15-.94-3.89h0Zm-8.37,2.07-1,3.87,1,.26,1-.25ZM142,533.54l-1.9,3.52h0Zm-6.53-3.95-2.28-3.28-4.74,3.28,4.74,3.29Zm6.53-3.94,1.89,3.52h0Zm69.23-274.73-1,3.88,1,.25,1-.27Zm-5.27-1.29-.93,3.89h0Zm53.32-16.29-1.9-3.52h0Zm6.52-4,2.28,3.29,4.74-3.29L268,226.11Zm-6.52-3.94,1.89-3.53h0Zm-64.47-21.78-.93,3.89h0Zm-50.32-14.81,1.39-3.75-1.57-.58-1.51.71Zm-6.61,3.31,1.9,3.53h0Zm-15,10.76,3,2.68h0Zm0,12.79,3-2.68h0Zm15,10.76,1.9-3.52h0ZM260,287.69l1.62-3.65-1.51-.67-1.54.59Zm-53.6,16.05.93,3.89h0Zm62.93-11.5,1.9-3.52h0Zm15,10.76-3,2.68h0Zm0,12.79-3-2.68h0Zm-15,10.75,1.9,3.53h0ZM201.26,349.7l-.94-3.89h0Zm-8.37,2.07-1,3.86,1,.27,1-.26ZM142,333.41l1.89-3.52h0Zm-6.53-4-2.28-3.29-4.74,3.29,4.74,3.29Zm6.53-3.95-1.9-3.52h0Zm353.43-54-4,.53,7.94-1Zm-1.13-9,4-.5-8,.8Zm-.07-.05,4-.53-.46-3.47h-3.5Zm63.47,62.17v4h0ZM623,261.91l4,0v-.09Zm-68.17-66.86h-4v4h4Zm0-45.76.2-4-4.2-.2v4.19ZM668.47,267.78l4,.41v-.12ZM566.64,371.19l-.06-4h-.09ZM453.69,295.36l3.88-.95-3.1-12.68L449.94,294ZM342.59,371h-4v3.66l3.65.32Zm0-214.12v-4h-4v4Zm14,0h4v-4h-4Zm0,201.41h-4v4.61l4.56-.65ZM446,261.86v-4H442.2l-.21,3.78Zm18.24,0,4-.34-.32-3.66h-3.67ZM559,358.07l-.06,4h.32Zm95.06-96.21h4v0Zm-84.47-96.77.53-4-4.53-.6v4.57Zm0,18.76h-4v3.49l3.46.47Zm67.7,78,4,.21V262ZM557.65,339.6l-.06,4h0Zm-77-77.09v-4h-4.13l.13,4.13Zm402.11,3.68,4,.19h0ZM901.91,203l3.31,2.25L909,199.6l-6.76-.62Zm0,129.94.66,3.94,6.09-1-3.41-5.14Zm-10.31,1v-4h-4v4Zm0,46.36h-4v4.2l4.19-.2ZM944,368.53l1.65-3.64-1.66-.76-1.66.76Zm50.36,11.71-.25,4,4.25.27v-4.26Zm0-16h4v-4l-4,0Zm-32.74-5.91-2.35-3.24-6.26,4.54,7.33,2.48ZM975.56,346l1-3.87-2.31-.6-1.62,1.75Zm18.34,3.21-.4,4,4.4.45v-4.43Zm0-14.78h4v-3.89l-3.88-.11Zm-8.43-1-3.33-2.21-3.35,5,6,1.1ZM1005,260.24l4-.29v-.12ZM985.79,202l-.59-4-6.17.93,3.41,5.22Zm7.19-.78.28,4,3.7-.25,0-3.72Zm.09-15.45,4,0,0-4h-4Zm-18,2.61-2.92,2.73,1.6,1.72,2.28-.57Zm-13.17-11.74-1.21-3.82-7.46,2.36,6.28,4.67Zm31.14-5.45.22,4,3.78-.21v-3.78Zm0-15.87h4v-4.07l-4.08.07Zm-47.16,11.55-1.77,3.59,1.69.83,1.72-.77ZM903.3,155.47l-.14,4h.08ZM790.52,232.3l-3.76,1.37,4.55,12.44,3.1-12.88ZM679.59,155.64l-.36-4-3.64.33v3.66Zm0,217h-4v4h4Zm13.94,0v4h4v-4Zm0-204.08.57-4-4.57-.65v4.61Zm89.34,97.68-4,.21.21,3.79h3.79Zm18.18,0v4h3.67l.31-3.66Zm94.62-97.49.26-4h-.32Zm34.09,7L932,179l6.56-4.33L931.16,172Zm-17.17,14.17-.92,3.89,2.21.52,1.58-1.63Zm-18.26-2.43,0-4h0Zm-76.9,78.09-4-.13-.14,4.13h4.13Zm13.52,0v4h3.51l.46-3.48Zm.07,0-4-.3,8,.79Zm1.13-9.11,4,.49-7.94-1Zm62.18-53.83,0-4h0Zm24.17,3.76,1.27-3.8-2.71-.9-1.73,2.26ZM898.42,266.2l-4,.09v0Zm20,62.24-3.16,2.45,1.82,2.35,2.77-1.07Zm14.67-7.63,2.27,3.3,3.67-2.52-2.9-3.39Zm-18.91-53.36,4,.19h0Zm18.89-53.88,3.06,2.58,2.83-3.37-3.61-2.49Zm-3.3,53.89h-4v.13Zm15-42.88,3.13-2.49-3.15-4-3.13,4Zm-.34,86.09-3.08,2.55,3,3.64,3.09-3.58Zm15.15-44.48,4,.06v-.09Zm-4.74,54.31-3-2.61L949,321.15l3.45,2.56Zm19-54.31,4-.15V266Zm-18.78-51.78-2.44-3.17-3.36,2.58L952,217ZM970.18,206l3.22-2.37-1.81-2.45-2.85,1.09Zm20.41,60.19,4,0v0Zm-20.94,62.56-1.52,3.7,2.73,1.12,1.88-2.27Zm-41.08,10.6-1.52-3.69-5.88,2.42,4.73,4.25Zm15.11-8.46,2.45-3.16-2.39-1.85-2.43,1.79Zm.25,19.49-2,3.47,2,1.15,2-1.17ZM958.62,340l2.6,3,4.71-4-5.62-2.63ZM926.69,358.6l1.42,3.73,7-2.66L929,355.33Zm-15.85-14.11,3-2.68-1.49-1.65-2.2.4Zm-4.6.74-.54-4-3.46.47v3.49Zm0,19h-4v4.57l4.54-.61Zm53.11-170.41,1.67,3.64,5.43-2.49-4.37-4.07Zm-16,9.79L941,206.85l2.46,1.79,2.39-1.89Zm-14.58-8.37-2.68-3-4.57,4.13,5.63,2.5Zm16.9-11.84,2.09-3.41-2-1.19-2,1.07Zm156.89,82.78-4,.08v.17ZM1012.8,158.13l.16-4-4.24-.17.08,4.25Zm.12,219.14h-4v4.9l4.8-1Zm0-16.12-.65-3.95-3.35.56v3.39Zm73.91-95,4,.11v-.15Zm-73.72-92.3-4,.08.07,3.23,3.17.61ZM193.92,1548.7c-23.2-6.18-39.59-12.36-50.08-18l-3.79,7c11.27,6.07,28.34,12.45,51.81,18.7Zm6.4-2.09q-4.29,1-8.42,2.08l2,7.75q4.08-1,8.32-2Zm67.12-22.79c-14.1,7.6-36.24,15.4-67.12,22.79l1.87,7.78c31.13-7.46,54.05-15.44,69.05-23.52Zm13.88-9.91c-2.45,2.71-6.82,6.11-13.88,9.91l3.8,7c7.5-4,12.73-8,16-11.6Zm2.27-3.72a2.38,2.38,0,0,1-.25.85,11.71,11.71,0,0,1-2,2.87l5.94,5.36c3.26-3.62,4.33-6.63,4.33-9.08Zm-2.27-3.71a11.53,11.53,0,0,1,2,2.87,2.42,2.42,0,0,1,.25.84h8c0-2.45-1.07-5.45-4.33-9.07Zm-13.88-9.92c7.06,3.81,11.43,7.21,13.88,9.92l5.94-5.36c-3.29-3.64-8.52-7.56-16-11.6Zm-9.05-4.41q5,2.22,9.05,4.41l3.8-7q-4.37-2.36-9.61-4.68Zm-51,16.28c20.62-4.94,38.77-10.32,54.1-16.2l-2.86-7.47c-14.91,5.72-32.7,11-53.1,15.89Zm-63.5,21.4c12.43-6.69,33.12-14.13,63.5-21.4l-1.86-7.78c-30.64,7.34-52.11,15-65.43,22.14Zm-6.14,3.72a65.17,65.17,0,0,1,6.14-3.72l-3.79-7a72.16,72.16,0,0,0-6.91,4.18Zm6.14-2.86a65.17,65.17,0,0,1-6.14-3.72l-4.56,6.58a74.28,74.28,0,0,0,6.91,4.18Zm-.78,62.86a451.7,451.7,0,0,0,50.77,14.94l1.86-7.78A442.27,442.27,0,0,1,145.83,1586Zm-3.33,3.08c2-1.06,4.1-2.13,6.41-3.21l-3.39-7.25c-2.42,1.13-4.7,2.27-6.82,3.42Zm-13.88,9.92c2.45-2.72,6.82-6.12,13.88-9.92l-3.8-7c-7.5,4-12.73,8-16,11.59Zm-2.26,3.71a2.17,2.17,0,0,1,.24-.84,11.35,11.35,0,0,1,2-2.87l-5.94-5.37c-3.26,3.62-4.32,6.63-4.32,9.08Zm2.26,3.71a11.53,11.53,0,0,1-2-2.87,2.17,2.17,0,0,1-.24-.84h-8c0,2.45,1.06,5.46,4.32,9.07Zm13.88,9.92c-7.06-3.81-11.43-7.21-13.88-9.92l-5.94,5.36c3.29,3.65,8.52,7.56,16,11.6Zm67.12,22.79c-30.88-7.4-53-15.19-67.12-22.79l-3.8,7c15,8.08,37.92,16.07,69,23.53Zm-1.7,24.27,4.65-19.45-7.78-1.86-4.65,19.45Zm-78.71-22.41c17.23,9.28,42.09,17.75,73.88,25.37l1.87-7.78c-31.53-7.55-55.61-15.83-71.95-24.63Zm-21.37-15.81c5.38,6,12.77,11.17,21.37,15.81l3.8-7c-8.17-4.4-14.69-9.09-19.23-14.13Zm-9.48-22.47c0,8.86,4,16.43,9.48,22.47l5.94-5.36c-4.59-5.07-7.42-10.82-7.42-17.11Zm9.48-22.48c-5.46,6-9.48,13.62-9.48,22.48h8c0-6.29,2.83-12,7.42-17.12ZM119,1576.37a68.36,68.36,0,0,0-13.89,11.41l5.94,5.36a60.6,60.6,0,0,1,12.26-10Zm-2.63,5.37c1,.53,2,1,3,1.56l3.65-7.12c-1-.49-1.9-1-2.82-1.48Zm-25.4-19c7,7.7,16,13.87,25.4,19l3.79-7c-9-4.85-17.13-10.5-23.25-17.27Zm-13.34-32.53c0,13.65,6.23,24.65,13.34,32.53l5.94-5.36c-6.24-6.91-11.28-16.09-11.28-27.17Zm13.34-32.53c-7.11,7.88-13.34,18.88-13.34,32.53h8c0-11.08,5-20.26,11.28-27.17Zm25.4-19c-9.44,5.08-18.44,11.24-25.4,19l5.94,5.36c6.12-6.78,14.26-12.43,23.25-17.27Zm54.23-20.69c-21.79,6.2-40.07,13.06-54.23,20.69l3.79,7c13.46-7.25,31.14-13.92,52.63-20Zm-44.12-9.69c11.44,6.17,26.2,11.95,44.06,17.36l2.32-7.65q-26.35-8-42.58-16.75Zm-21.37-15.8c5.38,6,12.77,11.17,21.37,15.8l3.8-7c-8.17-4.4-14.69-9.08-19.23-14.12Zm-9.48-22.47c0,8.85,4,16.43,9.48,22.47l5.94-5.36c-4.59-5.07-7.42-10.82-7.42-17.11Zm9.48-22.48c-5.46,6-9.48,13.62-9.48,22.48h8c0-6.3,2.83-12,7.42-17.12ZM119,1376.24a68.36,68.36,0,0,0-13.89,11.41L111,1393a59.94,59.94,0,0,1,12.26-10Zm-2.63,5.37,3,1.56,3.65-7.13q-1.44-.74-2.82-1.47Zm-25.4-19c7,7.71,16,13.87,25.4,19l3.79-7c-9-4.85-17.13-10.5-23.25-17.28Zm-13.34-32.52c0,13.65,6.23,24.65,13.34,32.52l5.94-5.36c-6.24-6.91-11.28-16.08-11.28-27.16Zm13.34-32.53c-7.11,7.87-13.34,18.87-13.34,32.53h8c0-11.09,5-20.26,11.28-27.17Zm25.4-19c-9.44,5.09-18.44,11.25-25.4,19l5.94,5.36c6.12-6.78,14.26-12.43,23.25-17.28ZM170.56,1258c-21.79,6.2-40.07,13-54.23,20.68l3.79,7c13.46-7.25,31.14-13.91,52.63-20Zm-44.12-9.69c11.44,6.16,26.2,12,44.06,17.36l2.32-7.66q-26.35-8-42.58-16.74Zm-21.37-15.8c5.38,6,12.77,11.16,21.37,15.8l3.8-7c-8.17-4.4-14.69-9.09-19.23-14.12ZM95.59,1210c0,8.86,4,16.43,9.48,22.48l5.94-5.36c-4.59-5.08-7.42-10.83-7.42-17.12Zm9.48-22.47c-5.46,6-9.48,13.62-9.48,22.47h8c0-6.29,2.83-12,7.42-17.11ZM119,1176.1a68.07,68.07,0,0,0-13.89,11.42l5.94,5.36a59.94,59.94,0,0,1,12.26-10Zm-2.63,5.38c1,.52,2,1,3,1.55l3.65-7.12c-1-.49-1.9-1-2.82-1.48Zm-25.4-19c7,7.71,16,13.87,25.4,19l3.79-7c-9-4.84-17.13-10.49-23.25-17.27ZM77.59,1130c0,13.66,6.23,24.65,13.34,32.53l5.94-5.36c-6.24-6.91-11.28-16.08-11.28-27.17Zm13.34-32.52c-7.11,7.87-13.34,18.87-13.34,32.52h8c0-11.08,5-20.25,11.28-27.16Zm25.4-19c-9.44,5.08-18.44,11.25-25.4,19l5.94,5.36c6.12-6.78,14.26-12.43,23.25-17.28Zm54.23-20.69c-21.79,6.2-40.07,13.06-54.23,20.69l3.79,7c13.46-7.25,31.14-13.92,52.63-20Zm-44.12-9.68c11.44,6.16,26.2,11.95,44.06,17.36l2.32-7.66q-26.35-8-42.58-16.74Zm-21.37-15.8c5.38,6,12.77,11.16,21.37,15.8l3.8-7c-8.17-4.4-14.69-9.09-19.23-14.13Zm-9.48-22.48c0,8.86,4,16.43,9.48,22.48L111,1027c-4.59-5.07-7.42-10.82-7.42-17.11Zm9.48-22.48c-5.46,6-9.48,13.62-9.48,22.48h8c0-6.29,2.83-12,7.42-17.12ZM119,976a68.36,68.36,0,0,0-13.89,11.41l5.94,5.36a60.24,60.24,0,0,1,12.26-10Zm-2.63,5.37c1,.53,2,1,3,1.56l3.65-7.12c-1-.49-1.9-1-2.82-1.48Zm-25.4-19c7,7.7,16,13.87,25.4,19l3.79-7c-9-4.85-17.13-10.49-23.25-17.27ZM77.59,929.86c0,13.65,6.23,24.65,13.34,32.53L96.87,957c-6.24-6.91-11.28-16.09-11.28-27.17Zm13.34-32.53c-7.11,7.88-13.34,18.88-13.34,32.53h8c0-11.08,5-20.26,11.28-27.17Zm25.4-19c-9.44,5.08-18.44,11.24-25.4,19l5.94,5.36c6.12-6.78,14.26-12.43,23.25-17.27Zm54.23-20.69c-21.79,6.2-40.07,13.06-54.23,20.69l3.79,7c13.46-7.25,31.14-13.92,52.63-20ZM126.44,848c11.44,6.16,26.2,11.94,44.06,17.35l2.32-7.65q-26.35-8-42.58-16.75ZM105.07,832.2c5.38,6,12.77,11.17,21.37,15.81l3.8-7c-8.17-4.4-14.69-9.08-19.23-14.12Zm-9.48-22.47c0,8.85,4,16.43,9.48,22.47l5.94-5.36c-4.59-5.07-7.42-10.82-7.42-17.11Zm9.48-22.48c-5.46,6-9.48,13.62-9.48,22.48h8c0-6.3,2.83-12,7.42-17.12ZM119,775.84a68.36,68.36,0,0,0-13.89,11.41l5.94,5.36a59.94,59.94,0,0,1,12.26-10Zm-2.63,5.37,3,1.56,3.65-7.13q-1.44-.74-2.82-1.47Zm-25.4-19c7,7.71,16,13.88,25.4,19l3.79-7c-9-4.85-17.13-10.5-23.25-17.28ZM77.59,729.73c0,13.65,6.23,24.65,13.34,32.52l5.94-5.36c-6.24-6.91-11.28-16.08-11.28-27.16ZM90.93,697.2c-7.11,7.87-13.34,18.87-13.34,32.53h8c0-11.09,5-20.26,11.28-27.17Zm25.4-19c-9.44,5.09-18.44,11.25-25.4,19l5.94,5.36c6.12-6.78,14.26-12.43,23.25-17.27Zm54.23-20.68c-21.79,6.2-40.07,13.05-54.23,20.68l3.79,7c13.46-7.26,31.14-13.92,52.63-20Zm-44.12-9.69c11.44,6.16,26.2,12,44.06,17.36l2.32-7.66q-26.35-8-42.58-16.74Zm-21.37-15.8c5.38,6,12.77,11.16,21.37,15.8l3.8-7c-8.17-4.4-14.69-9.09-19.23-14.12Zm-9.48-22.48c0,8.86,4,16.43,9.48,22.48l5.94-5.36c-4.59-5.08-7.42-10.83-7.42-17.12Zm9.48-22.47c-5.46,6-9.48,13.62-9.48,22.47h8c0-6.29,2.83-12,7.42-17.11ZM119,575.71a67.71,67.71,0,0,0-13.89,11.41l5.94,5.36a59.94,59.94,0,0,1,12.26-10Zm-2.63,5.37c1,.52,2,1,3,1.55l3.65-7.12c-1-.49-1.9-1-2.82-1.48Zm-25.4-19c7,7.71,16,13.87,25.4,19l3.79-7.05c-9-4.84-17.13-10.49-23.25-17.27ZM77.59,529.59c0,13.66,6.23,24.65,13.34,32.53l5.94-5.36c-6.24-6.91-11.28-16.08-11.28-27.17Zm13.34-32.52c-7.11,7.87-13.34,18.87-13.34,32.52h8c0-11.08,5-20.25,11.28-27.16Zm25.4-19c-9.44,5.08-18.44,11.25-25.4,19l5.94,5.36c6.12-6.78,14.26-12.43,23.25-17.28Zm54.23-20.69c-21.79,6.2-40.07,13.06-54.23,20.69l3.79,7c13.46-7.25,31.14-13.92,52.63-20Zm-44.12-9.68c11.44,6.16,26.2,11.95,44.06,17.36l2.32-7.66q-26.35-8-42.58-16.74Zm-21.37-15.8c5.38,6,12.77,11.16,21.37,15.8l3.8-7c-8.17-4.4-14.69-9.09-19.23-14.13Zm-9.48-22.48c0,8.86,4,16.43,9.48,22.48l5.94-5.37c-4.59-5.07-7.42-10.82-7.42-17.11ZM105.07,387c-5.46,6-9.48,13.62-9.48,22.48h8c0-6.29,2.83-12,7.42-17.12ZM119,375.57A68.36,68.36,0,0,0,105.07,387l5.94,5.36a60.24,60.24,0,0,1,12.26-10Zm-2.63,5.37c1,.53,2,1.05,3,1.56l3.65-7.12c-1-.49-1.9-1-2.82-1.48ZM90.93,362c7,7.7,16,13.87,25.4,18.95l3.79-7c-9-4.85-17.13-10.49-23.25-17.27ZM77.59,329.46c0,13.65,6.23,24.65,13.34,32.53l5.94-5.36c-6.24-6.91-11.28-16.09-11.28-27.17Zm13.34-32.53c-7.11,7.88-13.34,18.88-13.34,32.53h8c0-11.08,5-20.26,11.28-27.17ZM116.33,278c-9.44,5.08-18.44,11.24-25.4,18.95l5.94,5.36c6.12-6.78,14.26-12.43,23.25-17.27Zm54.23-20.69c-21.79,6.2-40.07,13.06-54.23,20.69l3.79,7c13.46-7.25,31.14-13.92,52.63-20Zm-44.12-9.68c11.44,6.16,26.2,11.94,44.06,17.35l2.32-7.65q-26.35-8-42.58-16.75ZM105.07,231.8c5.38,6,12.77,11.17,21.37,15.81l3.8-7.05c-8.17-4.4-14.69-9.08-19.23-14.12Zm-9.48-22.47c0,8.85,4,16.43,9.48,22.47l5.94-5.36c-4.59-5.07-7.42-10.82-7.42-17.11Zm9.48-22.48c-5.46,6.05-9.48,13.62-9.48,22.48h8c0-6.3,2.83-12,7.42-17.12ZM119,175.44a68.36,68.36,0,0,0-13.89,11.41l5.94,5.36a59.75,59.75,0,0,1,12.27-10Zm-2.63,5.37,3,1.56,3.65-7.13q-1.44-.74-2.82-1.47Zm-25.4-19c7,7.71,16,13.88,25.4,19l3.79-7c-9-4.85-17.13-10.5-23.25-17.28ZM77.59,129.33c0,13.65,6.23,24.65,13.34,32.52l5.94-5.36c-6.24-6.91-11.28-16.08-11.28-27.16ZM90.93,96.8c-7.11,7.87-13.34,18.87-13.34,32.53h8c0-11.09,5-20.26,11.28-27.17Zm25.4-19c-9.44,5.09-18.44,11.25-25.4,19l5.94,5.36c6.12-6.78,14.26-12.43,23.25-17.27Zm77.5-26.75c-32.29,7.73-58.6,16.56-77.5,26.75l3.79,7c18-9.71,43.55-18.35,75.57-26Zm16.47,51.58L198.65,54.05l-7.78,1.86,11.65,48.63ZM143.84,128.9c12.43-6.7,33.12-14.13,63.5-21.4l-1.86-7.78c-30.64,7.33-52.11,15-65.43,22.14Zm-6.14,3.71a67.63,67.63,0,0,1,6.14-3.71l-3.79-7a72.16,72.16,0,0,0-6.91,4.18Zm6.14-2.86A63.33,63.33,0,0,1,137.7,126l-4.56,6.57a72,72,0,0,0,6.91,4.19Zm50.08,18c-23.2-6.18-39.59-12.37-50.08-18l-3.79,7.05c11.27,6.07,28.34,12.45,51.81,18.7Zm6.4-2.09c-2.86.68-5.67,1.38-8.42,2.08l2,7.75q4.08-1,8.32-2Zm5.9,7.44-1.07-4.48-7.78,1.86,1.07,4.49Zm1.12-2-4.05-1-1.92,7.77,4.11,1Zm77.5,26.75c-18.9-10.19-45.21-19-77.5-26.75l-1.86,7.78c32,7.67,57.56,16.3,75.57,26Zm25.4,19c-7-7.71-16-13.88-25.4-19l-3.79,7c9,4.85,17.13,10.5,23.25,17.28Zm13.35,32.52c0-13.65-6.24-24.65-13.35-32.52l-5.94,5.36c6.24,6.91,11.29,16.08,11.29,27.16Zm-13.35,32.53c7.11-7.88,13.35-18.87,13.35-32.53h-8c0,11.09-5,20.26-11.29,27.17Zm-25,18.76c9.31-5,18.17-11.15,25-18.76l-5.94-5.36c-6,6.69-14.05,12.28-22.91,17.09Zm16.9,6.24a72.28,72.28,0,0,0-16.75-13.19l-4.1,6.87a64.35,64.35,0,0,1,14.91,11.68Zm9.49,22.47c0-8.85-4-16.43-9.49-22.47l-5.94,5.36c4.59,5.07,7.43,10.82,7.43,17.11Zm-9.49,22.48c5.46-6.05,9.49-13.62,9.49-22.48h-8c0,6.29-2.84,12-7.43,17.12Zm-21.37,15.8c8.6-4.64,16-9.84,21.37-15.8l-5.94-5.36c-4.54,5-11.06,9.72-19.23,14.12Zm-47,18.25c19.21-5.67,35-11.75,47-18.25l-3.8-7q-17.08,9.21-45.49,17.62ZM284.84,378c-13.49-7.27-30.72-13.83-51.15-19.8l-2.24,7.68c20.13,5.88,36.78,12.26,49.6,19.17Zm25.4,19c-7-7.71-16-13.87-25.4-19l-3.79,7c9,4.84,17.13,10.49,23.25,17.27Zm13.35,32.53c0-13.66-6.24-24.66-13.35-32.53l-5.94,5.36c6.24,6.91,11.29,16.08,11.29,27.17Zm-13.35,32.52c7.11-7.87,13.35-18.87,13.35-32.52h-8c0,11.08-5,20.25-11.29,27.16Zm-25,18.76c9.31-5,18.17-11.15,25-18.76l-5.94-5.36c-6,6.7-14.05,12.29-22.91,17.09Zm16.9,6.24a72.28,72.28,0,0,0-16.75-13.19l-4.1,6.87a64.62,64.62,0,0,1,14.91,11.68Zm9.49,22.48c0-8.86-4-16.43-9.49-22.48l-5.94,5.36c4.59,5.08,7.43,10.82,7.43,17.12ZM302.1,532c5.46-6,9.49-13.62,9.49-22.47h-8c0,6.29-2.84,12-7.43,17.11Zm-21.37,15.81c8.6-4.64,16-9.84,21.37-15.81l-5.94-5.36c-4.54,5-11.06,9.72-19.23,14.12Zm-47,18.24c19.21-5.66,35-11.75,47-18.24l-3.8-7q-17.08,9.21-45.49,17.62Zm51.14,12.13c-13.49-7.27-30.72-13.84-51.15-19.8l-2.24,7.68c20.13,5.87,36.78,12.25,49.6,19.16Zm25.4,19c-7-7.71-16-13.87-25.4-19l-3.79,7c9,4.84,17.13,10.49,23.25,17.27Zm13.35,32.53c0-13.65-6.24-24.65-13.35-32.53l-5.94,5.36c6.24,6.91,11.29,16.09,11.29,27.17Zm-13.35,32.53c7.11-7.88,13.35-18.88,13.35-32.53h-8c0,11.08-5,20.26-11.29,27.17ZM285.2,681c9.31-5.05,18.17-11.15,25-18.76l-5.94-5.36c-6,6.69-14.05,12.28-22.91,17.09Zm16.9,6.23A72.52,72.52,0,0,0,285.35,674l-4.1,6.87a64.6,64.6,0,0,1,14.91,11.67Zm9.49,22.48c0-8.86-4-16.43-9.49-22.48l-5.94,5.36c4.59,5.08,7.43,10.83,7.43,17.12Zm-9.49,22.48c5.46-6,9.49-13.62,9.49-22.48h-8c0,6.29-2.84,12-7.43,17.11Zm-21.37,15.8c8.6-4.64,16-9.84,21.37-15.8l-5.94-5.37c-4.54,5-11.06,9.73-19.23,14.13Zm-47,18.25c19.21-5.67,35-11.75,47-18.25l-3.8-7q-17.08,9.21-45.49,17.61Zm51.14,12.12c-13.49-7.27-30.72-13.84-51.15-19.8l-2.24,7.68c20.13,5.88,36.78,12.26,49.6,19.16Zm25.4,19c-7-7.71-16-13.88-25.4-19l-3.79,7c9,4.85,17.13,10.5,23.25,17.28Zm13.35,32.52c0-13.65-6.24-24.65-13.35-32.52l-5.94,5.36c6.24,6.91,11.29,16.08,11.29,27.16Zm-13.35,32.53c7.11-7.88,13.35-18.87,13.35-32.53h-8c0,11.09-5,20.26-11.29,27.17Zm-25,18.76c9.31-5,18.17-11.15,25-18.76L304.3,857c-6,6.69-14.05,12.28-22.91,17.09Zm16.9,6.24a72.28,72.28,0,0,0-16.75-13.19l-4.1,6.87a64.35,64.35,0,0,1,14.91,11.68Zm9.49,22.47c0-8.85-4-16.43-9.49-22.47l-5.94,5.36c4.59,5.07,7.43,10.82,7.43,17.11Zm-9.49,22.48c5.46-6,9.49-13.62,9.49-22.48h-8c0,6.29-2.84,12-7.43,17.12Zm-21.37,15.8c8.6-4.64,16-9.84,21.37-15.8l-5.94-5.36c-4.54,5-11.06,9.72-19.23,14.12Zm-47,18.25c19.21-5.67,35-11.75,47-18.25l-3.8-7q-17.08,9.21-45.49,17.62Zm51.14,12.12c-13.49-7.27-30.72-13.83-51.15-19.8l-2.24,7.68c20.13,5.88,36.78,12.26,49.6,19.17Zm25.4,19c-7-7.71-16-13.87-25.4-19l-3.79,7c9,4.84,17.13,10.49,23.25,17.27Zm13.35,32.53c0-13.66-6.24-24.66-13.35-32.53l-5.94,5.36c6.24,6.91,11.29,16.08,11.29,27.17Zm-13.35,32.52c7.11-7.87,13.35-18.87,13.35-32.52h-8c0,11.08-5,20.25-11.29,27.16Zm-25,18.76c9.31-5,18.17-11.15,25-18.76l-5.94-5.36c-6,6.69-14.05,12.29-22.91,17.09Zm16.9,6.24a72.28,72.28,0,0,0-16.75-13.19l-4.1,6.87a64.62,64.62,0,0,1,14.91,11.68Zm9.49,22.48c0-8.86-4-16.43-9.49-22.48l-5.94,5.36c4.59,5.08,7.43,10.82,7.43,17.12Zm-9.49,22.47c5.46-6,9.49-13.62,9.49-22.47h-8c0,6.29-2.84,12-7.43,17.11Zm-21.37,15.8c8.6-4.63,16-9.83,21.37-15.8l-5.94-5.36c-4.54,5-11.06,9.72-19.23,14.12Zm-47,18.25c19.21-5.66,35-11.75,47-18.25l-3.8-7q-17.08,9.21-45.49,17.62Zm51.14,12.13c-13.49-7.27-30.72-13.84-51.15-19.8l-2.24,7.68c20.13,5.87,36.78,12.25,49.6,19.16Zm25.4,19c-7-7.71-16-13.87-25.4-19l-3.79,7c9,4.84,17.13,10.49,23.25,17.27Zm13.35,32.53c0-13.65-6.24-24.65-13.35-32.53l-5.94,5.36c6.24,6.91,11.29,16.09,11.29,27.17Zm-13.35,32.53c7.11-7.88,13.35-18.88,13.35-32.53h-8c0,11.08-5,20.26-11.29,27.17Zm-25,18.76c9.31-5,18.17-11.15,25-18.76l-5.94-5.36c-6,6.69-14.05,12.28-22.91,17.09Zm16.9,6.23a72.26,72.26,0,0,0-16.75-13.18l-4.1,6.87a64.6,64.6,0,0,1,14.91,11.67Zm9.49,22.48c0-8.86-4-16.43-9.49-22.48l-5.94,5.36c4.59,5.08,7.43,10.83,7.43,17.12Zm-9.49,22.47c5.46-6,9.49-13.61,9.49-22.47h-8c0,6.29-2.84,12-7.43,17.11Zm-21.37,15.81c8.6-4.64,16-9.84,21.37-15.81l-5.94-5.36c-4.54,5-11.06,9.73-19.23,14.13Zm-47,18.25c19.21-5.67,35-11.75,47-18.25l-3.8-7q-17.08,9.21-45.49,17.61Zm51.14,12.12c-13.49-7.27-30.72-13.84-51.15-19.8l-2.24,7.68c20.13,5.88,36.78,12.26,49.6,19.16Zm25.4,19c-7-7.71-16-13.88-25.4-19l-3.79,7c9,4.85,17.13,10.5,23.25,17.28Zm13.35,32.52c0-13.65-6.24-24.65-13.35-32.52L304.3,1403c6.24,6.91,11.29,16.08,11.29,27.16Zm-13.35,32.53c7.11-7.88,13.35-18.87,13.35-32.53h-8c0,11.09-5,20.26-11.29,27.17Zm-25,18.76c9.31-5,18.17-11.15,25-18.76l-5.94-5.36c-6,6.69-14.05,12.28-22.91,17.09Zm16.9,6.24a72.28,72.28,0,0,0-16.75-13.19l-4.1,6.87a64.35,64.35,0,0,1,14.91,11.68Zm9.49,22.47c0-8.85-4-16.43-9.49-22.47l-5.94,5.36c4.59,5.07,7.43,10.82,7.43,17.11Zm-9.49,22.48c5.46-6.05,9.49-13.62,9.49-22.48h-8c0,6.29-2.84,12-7.43,17.12Zm-21.37,15.8c8.6-4.64,16-9.84,21.37-15.8l-5.94-5.36c-4.54,5-11.06,9.72-19.23,14.12Zm-73.88,25.37c31.79-7.61,56.65-16.08,73.88-25.37l-3.8-7c-16.33,8.8-40.42,17.08-72,24.63Zm-3,.73,3-.73-1.87-7.78-3,.74Zm-5.19,31,8.13-33.92-7.78-1.87-8.13,33.92Zm13.49-157.7q-2.61-.66-5.29-1.3l-1.87,7.78,5.23,1.28Zm45.19-17.22c-10,5.41-25.52,11.32-47.2,17.24l2.1,7.72c22-6,38.09-12.1,48.89-17.92Zm6.14-3.71a66.25,66.25,0,0,1-6.14,3.71l3.79,7a72.16,72.16,0,0,0,6.91-4.18Zm-6.14,2.86a62.11,62.11,0,0,1,6.14,3.71l4.56-6.57a72,72,0,0,0-6.91-4.19Zm-63.5-21.41c30.38,7.28,51.07,14.71,63.5,21.41l3.79-7c-13.32-7.18-34.78-14.8-65.43-22.14Zm-50.77-14.94a453.81,453.81,0,0,0,50.77,14.94l1.86-7.78a444.36,444.36,0,0,1-49.86-14.67Zm-3.33,3.08c2-1.07,4.1-2.14,6.41-3.21l-3.39-7.25c-2.42,1.13-4.7,2.27-6.82,3.41Zm-13.88,9.91c2.45-2.71,6.82-6.11,13.88-9.91l-3.8-7c-7.5,4-12.73,8-16,11.6Zm-2.26,3.72a2.19,2.19,0,0,1,.24-.85,11.71,11.71,0,0,1,2-2.87l-5.94-5.36c-3.26,3.62-4.32,6.63-4.32,9.08Zm2.26,3.71a11.53,11.53,0,0,1-2-2.87,2.21,2.21,0,0,1-.24-.84h-8c0,2.44,1.06,5.45,4.32,9.07Zm13.88,9.92c-7.06-3.81-11.43-7.21-13.88-9.92l-5.94,5.36c3.29,3.64,8.52,7.56,16,11.6Zm67.12,22.78c-30.88-7.39-53-15.18-67.12-22.78l-3.8,7c15,8.08,37.92,16.07,69,23.52Zm5.29-198.84-5.29-1.29-1.87,7.78q2.66.63,5.23,1.28Zm45.19-17.21c-10,5.41-25.52,11.32-47.2,17.24l2.1,7.71c22-6,38.09-12.09,48.89-17.91Zm6.14-3.72a63.89,63.89,0,0,1-6.14,3.72l3.79,7a74.28,74.28,0,0,0,6.91-4.18Zm-6.14,2.86a63.89,63.89,0,0,1,6.14,3.72l4.56-6.58a72.16,72.16,0,0,0-6.91-4.18Zm-63.5-21.4c30.38,7.27,51.07,14.71,63.5,21.4l3.79-7c-13.32-7.18-34.78-14.8-65.43-22.14Zm-50.77-15a451.59,451.59,0,0,0,50.77,15l1.86-7.78a446.48,446.48,0,0,1-49.86-14.67Zm-3.33,3.08c2-1.06,4.1-2.13,6.41-3.21l-3.39-7.24c-2.42,1.13-4.7,2.27-6.82,3.41Zm-13.88,9.92c2.45-2.71,6.82-6.11,13.88-9.92l-3.8-7c-7.5,4-12.73,8-16,11.6Zm-2.26,3.71a2.21,2.21,0,0,1,.24-.84,11.53,11.53,0,0,1,2-2.87l-5.94-5.36c-3.26,3.62-4.32,6.62-4.32,9.07Zm2.26,3.72a11.71,11.71,0,0,1-2-2.87,2.19,2.19,0,0,1-.24-.85h-8c0,2.45,1.06,5.46,4.32,9.08Zm13.88,9.91c-7.06-3.8-11.43-7.2-13.88-9.91l-5.94,5.36c3.29,3.64,8.52,7.55,16,11.6Zm67.12,22.79c-30.88-7.39-53-15.19-67.12-22.79l-3.8,7.05c15,8.08,37.92,16.06,69,23.52Zm51.73,38.22c-14.91,5.71-32.7,11-53.1,15.88l1.86,7.78c20.62-4.93,38.77-10.31,54.1-16.19Zm12.66,4.76q-4.37-2.36-9.61-4.68l-3.24,7.31q5,2.22,9.05,4.41Zm16,11.59c-3.29-3.64-8.52-7.55-16-11.59l-3.8,7c7.06,3.8,11.43,7.2,13.88,9.92Zm4.33,9.08c0-2.45-1.07-5.46-4.33-9.08l-5.94,5.37a11.35,11.35,0,0,1,2,2.87,2.36,2.36,0,0,1,.25.84Zm-4.33,9.07c3.26-3.61,4.33-6.62,4.33-9.07h-8a2.36,2.36,0,0,1-.25.84,11.53,11.53,0,0,1-2,2.87Zm-16,11.6c7.5-4,12.73-8,16-11.6l-5.94-5.36c-2.45,2.71-6.82,6.11-13.88,9.92Zm-69.05,23.53c31.13-7.46,54.05-15.45,69.05-23.53l-3.8-7c-14.1,7.6-36.24,15.39-67.12,22.79Zm-8.32,2q4.08-1,8.32-2l-1.87-7.78c-2.86.68-5.67,1.38-8.42,2.08Zm-53.82-18.72c11.27,6.08,28.34,12.46,51.81,18.71l2.06-7.73c-23.2-6.18-39.59-12.37-50.08-18Zm-6.91-4.18a72.16,72.16,0,0,0,6.91,4.18l3.79-7a63.33,63.33,0,0,1-6.14-3.71Zm6.91-10.75a72.16,72.16,0,0,0-6.91,4.18l4.56,6.57a67.63,67.63,0,0,1,6.14-3.71Zm65.43-22.15c-30.64,7.34-52.11,15-65.43,22.15l3.79,7c12.43-6.7,33.12-14.13,63.5-21.41Zm6.66-252.94-5.29-1.29-1.87,7.78,5.23,1.27Zm45.19-17.22c-10,5.42-25.52,11.32-47.2,17.24l2.1,7.72c22-6,38.09-12.09,48.89-17.92Zm6.14-3.71a62.11,62.11,0,0,1-6.14,3.71l3.79,7a70.16,70.16,0,0,0,6.91-4.18Zm-6.14,2.86a66.25,66.25,0,0,1,6.14,3.71l4.56-6.57a72.16,72.16,0,0,0-6.91-4.18Zm-63.5-21.4c30.38,7.27,51.07,14.7,63.5,21.4l3.79-7c-13.32-7.18-34.78-14.81-65.43-22.14Zm-50.77-15a453.69,453.69,0,0,0,50.77,15l1.86-7.78a446.48,446.48,0,0,1-49.86-14.67Zm-3.33,3.08c2-1.06,4.1-2.13,6.41-3.21l-3.39-7.25c-2.42,1.14-4.7,2.27-6.82,3.42Zm-13.88,9.92c2.45-2.72,6.82-6.12,13.88-9.92l-3.8-7c-7.5,4-12.73,7.95-16,11.6Zm-2.26,3.71a2.17,2.17,0,0,1,.24-.84,11.35,11.35,0,0,1,2-2.87l-5.94-5.36c-3.26,3.61-4.32,6.62-4.32,9.07Zm2.26,3.71a11.53,11.53,0,0,1-2-2.87,2.17,2.17,0,0,1-.24-.84h-8c0,2.45,1.06,5.46,4.32,9.07Zm13.88,9.92c-7.06-3.81-11.43-7.21-13.88-9.92l-5.94,5.36c3.29,3.65,8.52,7.56,16,11.6Zm67.12,22.79c-30.88-7.4-53-15.19-67.12-22.79l-3.8,7c15,8.08,37.92,16.07,69,23.53Zm51.73,38.21c-14.91,5.72-32.7,11-53.1,15.89l1.86,7.78c20.62-4.94,38.77-10.32,54.1-16.2Zm12.66,4.76q-4.37-2.36-9.61-4.68l-3.24,7.31q5,2.22,9.05,4.42Zm16,11.6c-3.29-3.64-8.52-7.55-16-11.6l-3.8,7c7.06,3.8,11.43,7.2,13.88,9.91Zm4.33,9.08c0-2.45-1.07-5.46-4.33-9.08l-5.94,5.36a11.71,11.71,0,0,1,2,2.87,2.38,2.38,0,0,1,.25.85Zm-4.33,9.07c3.26-3.62,4.33-6.63,4.33-9.07h-8a2.42,2.42,0,0,1-.25.84,11.53,11.53,0,0,1-2,2.87Zm-16,11.6c7.5-4,12.73-8,16-11.6l-5.94-5.36c-2.45,2.71-6.82,6.11-13.88,9.92Zm-69.05,23.52c31.13-7.45,54.05-15.44,69.05-23.52l-3.8-7c-14.1,7.6-36.24,15.39-67.12,22.78Zm-8.32,2.06q4.08-1,8.32-2.06l-1.87-7.78q-4.29,1-8.42,2.08Zm-53.82-18.72c11.27,6.07,28.34,12.45,51.81,18.7l2.06-7.73c-23.2-6.17-39.59-12.36-50.08-18Zm-6.91-4.18a72.16,72.16,0,0,0,6.91,4.18l3.79-7a67.63,67.63,0,0,1-6.14-3.71Zm6.91-10.76a72,72,0,0,0-6.91,4.19l4.56,6.57a63.33,63.33,0,0,1,6.14-3.71Zm65.43-22.14c-30.64,7.34-52.11,15-65.43,22.14l3.79,7c12.43-6.7,33.12-14.13,63.5-21.41Zm6.66-252.94q-2.61-.66-5.29-1.3L205,853.92l5.23,1.28Zm45.19-17.22c-10,5.41-25.52,11.32-47.2,17.24l2.1,7.72c22-6,38.09-12.1,48.89-17.92Zm6.14-3.71a66.25,66.25,0,0,1-6.14,3.71l3.79,7a72.16,72.16,0,0,0,6.91-4.18Zm-6.14,2.86a62.11,62.11,0,0,1,6.14,3.71l4.56-6.57a72,72,0,0,0-6.91-4.19ZM193.83,808c30.38,7.28,51.07,14.71,63.5,21.41l3.79-7c-13.32-7.18-34.78-14.8-65.43-22.14ZM143.06,793A451.7,451.7,0,0,0,193.83,808l1.86-7.78a444.36,444.36,0,0,1-49.86-14.67Zm-3.33,3.08c2-1.07,4.1-2.14,6.41-3.21l-3.39-7.25c-2.42,1.13-4.7,2.27-6.82,3.41ZM125.85,806c2.45-2.71,6.82-6.11,13.88-9.91l-3.8-7.05c-7.5,4.05-12.73,8-16,11.6Zm-2.26,3.72a2.19,2.19,0,0,1,.24-.85,11.71,11.71,0,0,1,2-2.87l-5.94-5.36c-3.26,3.62-4.32,6.63-4.32,9.08Zm2.26,3.71a11.53,11.53,0,0,1-2-2.87,2.21,2.21,0,0,1-.24-.84h-8c0,2.44,1.06,5.45,4.32,9.07Zm13.88,9.92c-7.06-3.81-11.43-7.21-13.88-9.92l-5.94,5.36c3.29,3.64,8.52,7.56,16,11.6Zm67.12,22.78c-30.88-7.39-53-15.18-67.12-22.78l-3.8,7c15,8.08,37.92,16.07,69,23.52Zm51.73,38.22c-14.91,5.72-32.7,11-53.1,15.89l1.86,7.78c20.62-4.94,38.77-10.32,54.1-16.2Zm12.66,4.76q-4.37-2.36-9.61-4.68l-3.24,7.31q5,2.22,9.05,4.41Zm16,11.6c-3.29-3.64-8.52-7.56-16-11.6l-3.8,7c7.06,3.81,11.43,7.21,13.88,9.92Zm4.33,9.07c0-2.45-1.07-5.45-4.33-9.07l-5.94,5.36a11.53,11.53,0,0,1,2,2.87,2.42,2.42,0,0,1,.25.84Zm-4.33,9.08c3.26-3.62,4.33-6.63,4.33-9.08h-8a2.38,2.38,0,0,1-.25.85,11.71,11.71,0,0,1-2,2.87Zm-16,11.6c7.5-4.05,12.73-8,16-11.6l-5.94-5.36c-2.45,2.71-6.82,6.11-13.88,9.91ZM202.19,954c31.13-7.46,54.05-15.44,69.05-23.52l-3.8-7.05c-14.1,7.6-36.24,15.4-67.12,22.79Zm-8.32,2q4.08-1,8.32-2l-1.87-7.78q-4.29,1-8.42,2.08Zm-53.82-18.71c11.27,6.07,28.34,12.45,51.81,18.7l2.06-7.73c-23.2-6.18-39.59-12.36-50.08-18Zm-6.91-4.18a74.28,74.28,0,0,0,6.91,4.18l3.79-7a65.17,65.17,0,0,1-6.14-3.72Zm6.91-10.76a72.16,72.16,0,0,0-6.91,4.18l4.56,6.58a65.17,65.17,0,0,1,6.14-3.72Zm65.43-22.14c-30.64,7.34-52.11,15-65.43,22.14l3.79,7c12.43-6.69,33.12-14.13,63.5-21.4Zm6.66-253L206.85,646,205,653.79q2.66.63,5.23,1.28Zm45.19-17.21c-10,5.41-25.52,11.32-47.2,17.24l2.1,7.71c22-6,38.09-12.09,48.89-17.91Zm6.14-3.72a63.89,63.89,0,0,1-6.14,3.72l3.79,7A74.28,74.28,0,0,0,268,633Zm-6.14,2.86a63.89,63.89,0,0,1,6.14,3.72l4.56-6.58a72.16,72.16,0,0,0-6.91-4.18Zm-63.5-21.4c30.38,7.27,51.07,14.71,63.5,21.4l3.79-7c-13.32-7.18-34.78-14.8-65.43-22.14Zm-50.77-15a451.59,451.59,0,0,0,50.77,15l1.86-7.78a446.48,446.48,0,0,1-49.86-14.67ZM139.73,596c2-1.06,4.1-2.13,6.41-3.2l-3.39-7.25c-2.42,1.13-4.7,2.27-6.82,3.41Zm-13.88,9.92c2.45-2.71,6.82-6.11,13.88-9.92l-3.8-7c-7.5,4-12.73,8-16,11.6Zm-2.26,3.71a2.21,2.21,0,0,1,.24-.84,11.53,11.53,0,0,1,2-2.87l-5.94-5.36c-3.26,3.62-4.32,6.62-4.32,9.07Zm2.26,3.72a11.71,11.71,0,0,1-2-2.87,2.19,2.19,0,0,1-.24-.85h-8c0,2.45,1.06,5.46,4.32,9.08Zm13.88,9.91c-7.06-3.8-11.43-7.2-13.88-9.91l-5.94,5.36c3.29,3.64,8.52,7.55,16,11.6ZM206.85,646c-30.88-7.39-53-15.19-67.12-22.79l-3.8,7c15,8.08,37.92,16.06,69,23.52Zm51.73,38.22c-14.91,5.71-32.7,11-53.1,15.89l1.86,7.78c20.62-4.94,38.77-10.32,54.1-16.2ZM271.24,689q-4.37-2.36-9.61-4.68l-3.24,7.31q5,2.22,9.05,4.41Zm16,11.6c-3.29-3.65-8.52-7.56-16-11.6l-3.8,7c7.06,3.8,11.43,7.2,13.88,9.92Zm4.33,9.07c0-2.45-1.07-5.46-4.33-9.07L281.32,706a11.35,11.35,0,0,1,2,2.87,2.36,2.36,0,0,1,.25.84Zm-4.33,9.07c3.26-3.61,4.33-6.62,4.33-9.07h-8a2.36,2.36,0,0,1-.25.84,11.53,11.53,0,0,1-2,2.87Zm-16,11.6c7.5-4,12.73-8,16-11.6l-5.94-5.36c-2.45,2.71-6.82,6.11-13.88,9.92Zm-69.05,23.53c31.13-7.46,54.05-15.45,69.05-23.53l-3.8-7c-14.1,7.6-36.24,15.39-67.12,22.79Zm-8.32,2q4.08-1,8.32-2l-1.87-7.78c-2.86.68-5.67,1.38-8.42,2.08Zm-53.82-18.72c11.27,6.08,28.34,12.46,51.81,18.71l2.06-7.73c-23.2-6.18-39.59-12.37-50.08-18ZM133.14,733a70.16,70.16,0,0,0,6.91,4.18l3.79-7a63.33,63.33,0,0,1-6.14-3.71Zm6.91-10.75a72.16,72.16,0,0,0-6.91,4.18L137.7,733a67.63,67.63,0,0,1,6.14-3.71Zm65.43-22.14c-30.64,7.33-52.11,15-65.43,22.14l3.79,7c12.43-6.7,33.12-14.13,63.5-21.4Zm6.66-252.95-5.29-1.29L205,453.66l5.23,1.27ZM257.33,430c-10,5.42-25.52,11.32-47.2,17.24l2.1,7.72c22-6,38.09-12.09,48.89-17.92Zm6.14-3.71a62.11,62.11,0,0,1-6.14,3.71l3.79,7a70.16,70.16,0,0,0,6.91-4.18Zm-6.14,2.86a66.25,66.25,0,0,1,6.14,3.71l4.56-6.57a72.16,72.16,0,0,0-6.91-4.18Zm-63.5-21.4c30.38,7.27,51.07,14.7,63.5,21.4l3.79-7c-13.32-7.18-34.78-14.81-65.43-22.14Zm-50.77-14.95a453.69,453.69,0,0,0,50.77,14.95l1.86-7.78a446.48,446.48,0,0,1-49.86-14.67Zm-3.33,3.08c2-1.06,4.1-2.13,6.41-3.21l-3.39-7.25c-2.42,1.14-4.7,2.27-6.82,3.42Zm-13.88,9.92c2.45-2.72,6.82-6.12,13.88-9.92l-3.8-7c-7.5,4-12.73,7.95-16,11.6Zm-2.26,3.71a2.17,2.17,0,0,1,.24-.84,11.35,11.35,0,0,1,2-2.87l-5.94-5.36c-3.26,3.61-4.32,6.62-4.32,9.07Zm2.26,3.71a11.53,11.53,0,0,1-2-2.87,2.17,2.17,0,0,1-.24-.84h-8c0,2.45,1.06,5.46,4.32,9.07Zm13.88,9.92c-7.06-3.81-11.43-7.21-13.88-9.92l-5.94,5.36c3.29,3.65,8.52,7.56,16,11.6Zm67.12,22.79c-30.88-7.4-53-15.19-67.12-22.79l-3.8,7c15,8.08,37.92,16.07,69,23.53Zm51.73,38.21c-14.91,5.72-32.7,11-53.1,15.89l1.86,7.78c20.62-4.94,38.77-10.32,54.1-16.2Zm12.66,4.76q-4.37-2.36-9.61-4.68l-3.24,7.31q5,2.22,9.05,4.42Zm16,11.6c-3.29-3.64-8.52-7.55-16-11.6l-3.8,7c7.06,3.8,11.43,7.2,13.88,9.91Zm4.33,9.08c0-2.45-1.07-5.46-4.33-9.08l-5.94,5.36a11.71,11.71,0,0,1,2,2.87,2.38,2.38,0,0,1,.25.85Zm-4.33,9.07c3.26-3.62,4.33-6.63,4.33-9.07h-8a2.42,2.42,0,0,1-.25.84,11.53,11.53,0,0,1-2,2.87Zm-16,11.6c7.5-4,12.73-8,16-11.6l-5.94-5.36c-2.45,2.71-6.82,6.11-13.88,9.92Zm-69.05,23.52c31.13-7.45,54.05-15.44,69.05-23.52l-3.8-7c-14.1,7.6-36.24,15.39-67.12,22.78Zm-8.32,2.06q4.08-1,8.32-2.06l-1.87-7.78Q196,547,191.9,548Zm-53.82-18.72c11.27,6.07,28.34,12.45,51.81,18.71l2.06-7.73c-23.2-6.18-39.59-12.37-50.08-18Zm-6.91-4.18a72.16,72.16,0,0,0,6.91,4.18l3.79-7a67.63,67.63,0,0,1-6.14-3.71Zm6.91-10.76a72,72,0,0,0-6.91,4.19l4.56,6.57a63.33,63.33,0,0,1,6.14-3.71ZM205.48,500c-30.64,7.34-52.11,15-65.43,22.14l3.79,7c12.43-6.7,33.12-14.13,63.5-21.41ZM212.14,247q-2.61-.66-5.29-1.3L205,253.52l5.23,1.28Zm45.19-17.22c-10,5.41-25.52,11.32-47.2,17.24l2.1,7.72c22-6,38.09-12.1,48.89-17.92Zm6.14-3.71a66.25,66.25,0,0,1-6.14,3.71l3.79,7a72.16,72.16,0,0,0,6.91-4.18ZM257.33,229a62.11,62.11,0,0,1,6.14,3.71l4.56-6.57a72,72,0,0,0-6.91-4.19Zm-63.5-21.41c30.38,7.28,51.07,14.71,63.5,21.41l3.79-7.05c-13.32-7.18-34.78-14.8-65.43-22.14Zm-50.77-14.94a451.7,451.7,0,0,0,50.77,14.94l1.86-7.78a444.36,444.36,0,0,1-49.86-14.67Zm-3.33,3.08c2-1.07,4.1-2.14,6.41-3.21l-3.39-7.25c-2.42,1.13-4.7,2.27-6.82,3.41Zm-13.88,9.91c2.45-2.71,6.82-6.11,13.88-9.91l-3.8-7c-7.5,4-12.73,8-16,11.6Zm-2.26,3.72a2.19,2.19,0,0,1,.24-.85,11.71,11.71,0,0,1,2-2.87l-5.94-5.36c-3.26,3.62-4.32,6.63-4.32,9.08Zm2.26,3.71a11.53,11.53,0,0,1-2-2.87,2.21,2.21,0,0,1-.24-.84h-8c0,2.44,1.06,5.45,4.32,9.07ZM139.73,223c-7.06-3.81-11.43-7.21-13.88-9.92l-5.94,5.36c3.29,3.64,8.52,7.56,16,11.6Zm67.12,22.78c-30.88-7.39-53-15.18-67.12-22.78l-3.8,7c15,8.08,37.92,16.07,69,23.52ZM258.58,284c-14.91,5.72-32.7,11-53.1,15.89l1.86,7.78c20.62-4.94,38.77-10.32,54.1-16.2Zm12.66,4.76q-4.37-2.36-9.61-4.68l-3.24,7.31q5,2.22,9.05,4.41Zm16,11.6c-3.29-3.64-8.52-7.56-16-11.6l-3.8,7c7.06,3.81,11.43,7.21,13.88,9.92Zm4.33,9.07c0-2.45-1.07-5.45-4.33-9.07l-5.94,5.36a11.53,11.53,0,0,1,2,2.87,2.42,2.42,0,0,1,.25.84Zm-4.33,9.08c3.26-3.62,4.33-6.63,4.33-9.08h-8a2.38,2.38,0,0,1-.25.85,11.71,11.71,0,0,1-2,2.87Zm-16,11.6c7.5-4.05,12.73-8,16-11.6l-5.94-5.36c-2.45,2.71-6.82,6.11-13.88,9.91Zm-69.05,23.52c31.13-7.46,54.05-15.44,69.05-23.52l-3.8-7.05c-14.1,7.6-36.24,15.4-67.12,22.79Zm-8.32,2.05q4.08-1,8.32-2.05l-1.87-7.78q-4.29,1-8.42,2.08Zm-53.82-18.71c11.27,6.07,28.34,12.45,51.81,18.7l2.06-7.73c-23.2-6.18-39.59-12.36-50.08-18Zm-6.91-4.18a74.28,74.28,0,0,0,6.91,4.18l3.79-7a65.17,65.17,0,0,1-6.14-3.72ZM140.05,322a72.16,72.16,0,0,0-6.91,4.18l4.56,6.58a65.17,65.17,0,0,1,6.14-3.72Zm65.43-22.14c-30.64,7.34-52.11,15-65.43,22.14l3.79,7c12.43-6.69,33.12-14.13,63.5-21.4Zm293.87-28.8-1.13-9-7.94,1,1.13,9Zm-9-6.75,1,7.78,7.93-1.06-1-7.77Zm-.12-1.44c0,.43.07.85.1,1.27l8-.7-.09-1.17Zm8.05.39-.17-1.27L490.21,263l.17,1.26Zm59.34,61.43v-4h-.51c-.38,0-.95,0-1.69-.1a62.14,62.14,0,0,1-6.26-.77,70,70,0,0,1-19.38-6.27c-14.07-7.06-28.93-21.15-31.48-50.1l-8,.7c2.83,32.05,19.63,48.41,35.86,56.55a78.23,78.23,0,0,0,21.62,7c2.9.5,5.32.75,7,.87.86.07,1.53.1,2,.11l.56,0h.23ZM623,261.91l-4,0h0V262c0,.1,0,.25,0,.45,0,.41,0,1-.11,1.82-.14,1.59-.39,3.89-.89,6.67a71,71,0,0,1-6.87,20.28,52.65,52.65,0,0,1-18,20.06c-8.47,5.45-19.91,9.27-35.47,9.41l.07,8c16.89-.15,29.85-4.32,39.73-10.69a60.68,60.68,0,0,0,20.8-23.05,79.25,79.25,0,0,0,7.66-22.59c.55-3.06.84-5.62,1-7.44.07-.9.11-1.62.13-2.13,0-.25,0-.45,0-.59a1.16,1.16,0,0,0,0-.17V262h0Zm-68.17-66.86v4h.63c.44,0,1.11,0,2,.1,1.73.13,4.23.38,7.24.87a80,80,0,0,1,22.07,7,56.13,56.13,0,0,1,21.85,18.52c6,8.69,10.15,20.45,10.4,36.46l8-.13c-.28-17.42-4.87-30.74-11.8-40.85a64.18,64.18,0,0,0-24.91-21.17,87.66,87.66,0,0,0-24.3-7.68c-3.29-.54-6-.82-8-1l-2.28-.12h-.88S554.86,191.05,554.86,195.05Zm-4-45.76v45.76h8V149.29ZM668.47,267.78l4,.29h0V268c0-.07,0-.16,0-.28s0-.58,0-1c0-.88.06-2.14.05-3.75a131,131,0,0,0-.75-13.25A132.63,132.63,0,0,0,661,209.06,102,102,0,0,0,626.3,167c-17.06-11.87-40.14-20.2-71.24-21.68l-.39,8c29.83,1.42,51.41,9.36,67.07,20.25a94,94,0,0,1,32,38.84,124.37,124.37,0,0,1,10.15,38.13,122.74,122.74,0,0,1,.71,12.43c0,1.49,0,2.65-.05,3.43,0,.38,0,.68,0,.86s0,.17,0,.21v0h0ZM566.64,371.19l.06,4H567l.84,0c.73,0,1.77-.11,3.08-.23,2.63-.25,6.38-.72,10.88-1.61a119.37,119.37,0,0,0,33.66-12c25.19-13.67,51.51-40.63,57-93.09l-8-.82c-5.15,49.62-29.75,74.36-52.82,86.88a111.41,111.41,0,0,1-31.38,11.21A100.27,100.27,0,0,1,570.21,367c-1.2.11-2.13.17-2.75.21l-.69,0h-.19ZM453.69,295.36l-3.89.95h0v0l0,.06.05.21c0,.17.11.42.2.73.18.63.45,1.54.82,2.67.75,2.27,1.92,5.48,3.62,9.3A115.45,115.45,0,0,0,472,337.15c17.25,20.22,46.63,39.79,94.75,38l-.29-8C521,368.85,493.94,350.51,478.11,332a107.5,107.5,0,0,1-16.28-25.9c-1.58-3.55-2.65-6.51-3.33-8.55-.34-1-.57-1.83-.72-2.35-.08-.27-.13-.47-.17-.59a.78.78,0,0,0,0-.14v0h0ZM342.59,371l-.35,4h.09l.21,0,.75,0c.64,0,1.57.07,2.76.09,2.36,0,5.75,0,9.9-.34A125.48,125.48,0,0,0,388,368c24.86-8.91,53.64-28.58,69.45-71.22l-7.5-2.78c-14.86,40.07-41.63,58.22-64.65,66.47a117,117,0,0,1-30,6.4c-3.87.31-7,.35-9.16.32-1.08,0-1.91-.05-2.45-.08l-.61,0h-.17S342.93,367,342.59,371Zm-4-214.12V371h8V156.9Zm18-4h-14v8h14Zm4,205.41V156.9h-8V358.31ZM446,261.86l-4-.22h0v0a1,1,0,0,1,0,.15c0,.14,0,.35-.05.64-.05.58-.14,1.44-.28,2.56-.28,2.23-.78,5.46-1.63,9.39a119.22,119.22,0,0,1-10.53,29.36c-11.3,21.73-32.67,44.84-73.5,50.58l1.12,7.92c43.9-6.17,67.25-31.29,79.48-54.81a127.11,127.11,0,0,0,11.25-31.35c.91-4.19,1.44-7.66,1.75-10.09.15-1.22.25-2.18.31-2.85q0-.51.06-.78c0-.09,0-.16,0-.21v-.08h0Zm18.24-4H446v8h18.24ZM559,358.07c0-4,.06-4,.06-4h-.18l-.65,0c-.59,0-1.47-.08-2.6-.19a94,94,0,0,1-9.52-1.37,105.1,105.1,0,0,1-29.51-10.4c-21.58-11.59-44.39-34.51-48.37-80.56l-8,.69c4.24,49,28.82,74.17,52.55,86.92a113.07,113.07,0,0,0,31.78,11.2c4.27.83,7.81,1.26,10.31,1.49,1.25.12,2.24.18,2.93.21l.8,0h.31Zm95.06-96.21h-4V262c0,.15,0,.38,0,.68,0,.61-.07,1.53-.16,2.71-.19,2.37-.55,5.78-1.28,9.91a109.47,109.47,0,0,1-10.09,30.52c-11.35,22.19-34,45.27-79.77,48.22l.52,8c49-3.16,73.89-28.18,86.37-52.57a117.44,117.44,0,0,0,10.85-32.77c.78-4.41,1.17-8.09,1.38-10.67.1-1.3.15-2.32.18-3,0-.36,0-.63,0-.83v-.31h0Zm-84.47-96.77c-.52,4-.53,4-.53,4h0l.14,0,.64.1c.56.09,1.42.25,2.51.47,2.19.45,5.35,1.19,9.16,2.34a112.64,112.64,0,0,1,27.89,12.74c20.13,12.9,40.34,35.94,40.62,77.16l8-.06c-.31-44.41-22.34-69.76-44.3-83.84a120.48,120.48,0,0,0-29.89-13.65c-4.07-1.23-7.47-2-9.87-2.53-1.2-.24-2.15-.41-2.81-.52l-.77-.12-.21,0h-.09Zm4,18.76V165.09h-8v18.76Zm63.7,78,4,.14h0v-.06a.87.87,0,0,0,0-.18v-.64c0-.56,0-1.35,0-2.35-.08-2-.26-4.83-.72-8.26a94.07,94.07,0,0,0-7.14-25.68c-8.64-19.37-26.63-39.93-63.27-44.93L569,187.81c33.49,4.57,49.36,23,57,40.26a85.86,85.86,0,0,1,6.52,23.47c.42,3.14.59,5.73.65,7.51,0,.89,0,1.58,0,2v.63h0ZM557.65,339.6c0,4,0,4,0,4h1c.6,0,1.47,0,2.56-.12,2.18-.15,5.28-.44,9-1.05a98.11,98.11,0,0,0,27.54-8.74c20.52-10.2,41.43-30.83,43.58-71.61l-8-.42c-2,37.55-20.88,55.79-39.15,64.87a89.7,89.7,0,0,1-25.27,8c-3.43.56-6.26.83-8.23,1-1,.07-1.74.1-2.24.11h-.72Zm-77-77.09-4,.14h0v.06a1.64,1.64,0,0,0,0,.2c0,.16,0,.4,0,.7,0,.6.11,1.46.22,2.55.22,2.18.63,5.27,1.36,9a102.59,102.59,0,0,0,9.4,27.29c10.49,20.17,30.95,40.51,69.91,41.16l.13-8c-35.5-.59-53.55-18.79-63-36.86a94.7,94.7,0,0,1-8.64-25.13c-.68-3.43-1.05-6.28-1.25-8.25-.11-1-.17-1.75-.2-2.26q0-.39,0-.57a.72.72,0,0,1,0-.13v0h0Zm13.54-4H480.64v8h13.54Zm392.56,7.85c1.15-26.53,8.4-46.32,18.48-61.15l-6.61-4.5c-11,16.17-18.66,37.43-19.86,65.3Zm18.46,64.33c-10-15.1-14.64-31.2-16.76-43.6A123.18,123.18,0,0,1,886.8,272c-.08-1.83-.09-3.27-.09-4.23,0-.49,0-.85,0-1.09s0-.21,0-.26v-.06h0l-4-.19-4-.19h0v0a.41.41,0,0,1,0,.1c0,.08,0,.19,0,.34s0,.72,0,1.26c0,1.09,0,2.66.1,4.63a128.13,128.13,0,0,0,1.75,16.07c2.23,13.11,7.16,30.37,18,46.67Zm-4-1.74c-3,.49-5.42.74-7.12.86-.85.06-1.5.09-1.94.1l-.48,0h-.12v8h.87c.53,0,1.29-.05,2.24-.12,1.91-.14,4.62-.41,7.86-1Zm-13.66,5v46.36h8V333.93Zm4.19,50.36c21.64-1.05,39.4-5.46,54-12.12l-3.33-7.28c-13.52,6.19-30.26,10.4-51,11.41Zm102.91-8c-19.79-1.26-35.88-5.42-49-11.36l-3.31,7.28c14.07,6.39,31.12,10.75,51.77,12.06ZM990.4,364.2v16h8v-16Zm-30-2.13a120.1,120.1,0,0,0,23.91,5.43c3.07.37,5.58.55,7.33.63l2,.07h.78s0,0,0-4l0-4h-.56c-.4,0-1,0-1.8-.06-1.58-.08-3.89-.24-6.75-.58A113,113,0,0,1,963,354.5Zm3.63-.55a98.85,98.85,0,0,0,14.48-12.82l-5.86-5.44a91.11,91.11,0,0,1-13.32,11.79Zm10.56-11.67a128.34,128.34,0,0,0,18.93,3.32l.81-8a120.66,120.66,0,0,1-17.75-3.1Zm23.33-.66V334.41h-8v14.78Zm-4-14.78.12-4h-.09l-.38,0-1.56-.12c-1.37-.14-3.36-.38-5.79-.83l-1.45,7.87c2.69.5,4.91.77,6.48.92l1.84.15.51,0h.21Zm-5.09,1.18c11.6-17.5,16.62-36.41,18.75-50.84a140.16,140.16,0,0,0,1.51-17.74c0-2.19,0-3.92,0-5.13,0-.6,0-1.07,0-1.4,0-.16,0-.28,0-.37a.49.49,0,0,1,0-.11v0h0l-4,.28-4,.29h0v.06c0,.07,0,.16,0,.3s0,.68,0,1.22c0,1.08.05,2.69,0,4.73a133.52,133.52,0,0,1-1.42,16.73c-2,13.71-6.76,31.38-17.51,47.59ZM1009,259.83c-2.6-25.42-10-45-19.82-60l-6.7,4.38c9.08,13.88,16.08,32.21,18.56,56.49Zm-22.58-53.9c2.19-.33,4.49-.58,6.88-.75l-.55-8q-3.9.27-7.51.81Zm10.6-4.72.09-15.45-8,0L989,201.17Zm-3.91-15.47v-4h-.44l-1.09,0c-.94,0-2.28.13-3.95.3a96.87,96.87,0,0,0-13.46,2.37l1.93,7.77a88.23,88.23,0,0,1,12.34-2.18c1.51-.16,2.71-.23,3.51-.27l.9,0h.26ZM978,185.61a102,102,0,0,0-13.7-12.21l-4.77,6.42a94.94,94.94,0,0,1,12.64,11.26Zm14.83-18.45a131.25,131.25,0,0,0-32.12,5.63l2.41,7.63a122.65,122.65,0,0,1,30.16-5.27Zm-3.77-11.87v15.87h8V155.29Zm-41.52,15.2a133.19,133.19,0,0,1,31.87-9.66c4.23-.72,7.69-1.11,10.09-1.31,1.2-.11,2.12-.16,2.74-.19l.69,0h.2l-.07-4-.08-4h-.31l-.83,0c-.7,0-1.72.1-3,.21-2.59.22-6.29.63-10.76,1.4a140.5,140.5,0,0,0-33.81,10.25Zm.13-7.24a119.8,119.8,0,0,0-30.76-10.18c-4.06-.76-7.41-1.16-9.76-1.37-1.17-.1-2.1-.16-2.75-.19l-.75,0h-.29s0,0-.07,4l-.06,4h.17l.6,0c.55,0,1.37.08,2.44.18,2.13.19,5.22.56,9,1.26a111.48,111.48,0,0,1,28.69,9.5Zm-44.23-11.78C855.37,149.69,826,169.53,808.81,190a117.32,117.32,0,0,0-17.47,28.19c-1.7,3.87-2.86,7.12-3.61,9.42-.37,1.15-.64,2.06-.82,2.7-.09.32-.16.57-.2.74a1.49,1.49,0,0,0-.05.21.14.14,0,0,0,0,.06v0h0l3.89.94c3.89.93,3.89.94,3.89.94h0v0a.58.58,0,0,1,0-.14c0-.13.09-.33.16-.59.15-.54.39-1.35.73-2.39.68-2.08,1.75-5.08,3.33-8.68a109.35,109.35,0,0,1,16.26-26.25c15.82-18.8,42.87-37.38,88.23-35.7ZM794.28,230.92c-15.78-43.17-44.5-63.1-69.34-72.14a123.29,123.29,0,0,0-32-6.93c-4.14-.34-7.52-.39-9.89-.35-1.18,0-2.11.05-2.76.08l-.75,0-.21,0h-.08s0,0,.35,4l.35,4h.16l.61,0c.54,0,1.37-.06,2.44-.08,2.15,0,5.28,0,9.14.33a115.42,115.42,0,0,1,29.91,6.48c23,8.35,49.72,26.74,64.56,67.37ZM675.59,155.64v217h8V155.64Zm4,221h13.94v-8H679.59Zm17.94-4V168.51h-8V372.59ZM693,172.47c40.77,5.83,62.12,29.22,73.42,51.24a122.2,122.2,0,0,1,10.52,29.75c.85,4,1.35,7.26,1.63,9.52.14,1.13.23,2,.28,2.59,0,.29,0,.51.05.65a1,1,0,0,1,0,.15v0h0s0,0,4-.22,4-.23,4-.23h0a.2.2,0,0,0,0-.07,1.79,1.79,0,0,0,0-.21c0-.19,0-.45-.06-.79-.06-.67-.16-1.65-.31-2.88-.31-2.46-.84-6-1.75-10.2a129.93,129.93,0,0,0-11.23-31.73c-12.2-23.79-35.52-49.24-79.39-55.51Zm89.91,97.72h18.18v-8H782.87ZM805,266.53c4-46.71,26.78-69.94,48.32-81.68a103.8,103.8,0,0,1,29.46-10.53,95,95,0,0,1,9.5-1.4c1.13-.1,2-.16,2.59-.19l.64,0h.18l-.05-4c-.06-4-.06-4-.07-4h-.31l-.8,0c-.69,0-1.67.1-2.92.22a102,102,0,0,0-10.3,1.51,111.81,111.81,0,0,0-31.75,11.35c-23.71,12.93-48.22,38.44-52.46,88Zm90.37-93.84a114.77,114.77,0,0,1,33,6.76l2.81-7.49a122.81,122.81,0,0,0-35.23-7.25Zm20.06,20A98.42,98.42,0,0,1,932,179l-4.4-6.68a106.52,106.52,0,0,0-17.84,14.72Zm-2-6.68a100.5,100.5,0,0,0-13.64-2.24c-1.7-.15-3.06-.23-4-.26l-1.11,0h-.44l0,4,0,4h.27l.92,0c.82,0,2,.1,3.58.24a90.66,90.66,0,0,1,12.54,2.06Zm-19.23-2.53c-38.94.65-59.36,21.27-69.83,41.68a105.32,105.32,0,0,0-9.37,27.62c-.73,3.75-1.13,6.87-1.36,9.08-.11,1.1-.18,2-.22,2.58,0,.31,0,.55,0,.71s0,.15,0,.2v.08h0l4,.14,4,.13h0v0s0-.08,0-.14,0-.31,0-.57c0-.52.1-1.3.2-2.3.2-2,.58-4.89,1.25-8.37a97.21,97.21,0,0,1,8.64-25.49C841,210.45,859,192,894.4,191.43Zm-76.84,86.09H831v-8H817.43Zm17.49-3.48.18-1.37-7.93-1L827,265Zm.09-.22c0-.44.07-.88.11-1.32l-8-.7-.12,1.42Zm-6.83-9.9L827.05,265l7.94,1,1.13-9.11Zm6.92,8.75,1-7.74-7.93-1-1,7.74Zm0-.17c2.58-29.31,17.43-43.56,31.46-50.69a69.18,69.18,0,0,1,19.33-6.34c2.6-.45,4.75-.67,6.22-.78.74-.06,1.31-.08,1.69-.1h.51v-4c0-4,0-4,0-4h-.23l-.55,0c-.48,0-1.15,0-2,.11-1.7.12-4.11.38-7,.88A77,77,0,0,0,863,206.68c-16.21,8.24-33,24.77-35.81,57.13Zm59.18-57.92c2.52,0,4.94.15,7.25.36l.73-8c-2.54-.23-5.17-.36-7.91-.39Zm21-2.68c-10.88,14.18-16.09,29.76-18.59,41.71a114.14,114.14,0,0,0-2.1,14.75c-.13,1.82-.19,3.27-.21,4.28,0,.51,0,.91,0,1.18a2.73,2.73,0,0,0,0,.32v.12h0l4-.09,4-.08h0a.2.2,0,0,1,0-.05v-.23c0-.22,0-.56,0-1,0-.88.06-2.2.19-3.87a105.39,105.39,0,0,1,2-13.7c2.34-11.2,7.18-25.55,17.1-38.48Zm-20.91,62.42c.9,28.71,9.18,49.54,20.83,64.56l6.32-4.9c-10.5-13.55-18.3-32.69-19.16-59.91Zm36.4,51.18A66.09,66.09,0,0,1,917,324.7l2.86,7.47a74.51,74.51,0,0,0,15.51-8.06Zm-16.65-50.06-4-.2h0v.11c0,.07,0,.18,0,.3s0,.62,0,1.09c0,.92,0,2.25.12,3.91a90.38,90.38,0,0,0,1.8,13.36,83.81,83.81,0,0,0,18,37.37l6.07-5.21a75.74,75.74,0,0,1-16.22-33.8,82.89,82.89,0,0,1-1.64-12.19c-.09-1.49-.11-2.66-.11-3.44,0-.4,0-.69,0-.88a1.1,1.1,0,0,1,0-.21v0h0ZM930,211c-10.72,12.76-18.63,30.83-19.82,56.26l8,.37c1.11-23.85,8.47-40.2,18-51.48Zm-12.77-.86a53.64,53.64,0,0,1,13.56,6.72l4.55-6.57a61.71,61.71,0,0,0-15.57-7.74Zm12.53,57.32c4,0,4,0,4,0h0v-.19c0-.16,0-.39,0-.7,0-.63.08-1.57.19-2.76a78.33,78.33,0,0,1,1.57-9.75,68.17,68.17,0,0,1,12.4-27l-6.29-5c-8,10.18-11.95,21.52-13.92,30.21A86,86,0,0,0,926,263.08c-.13,1.34-.19,2.41-.22,3.16q0,.56,0,.87v.34h4Zm17.78,40.66c-7.5-9.07-13.22-22-13.79-40.78l-8,.25c.61,20.36,6.89,35.08,15.62,45.63Zm8.07-42c-.31,19.45-6.25,32.75-14.18,41.93l6.06,5.23c9.25-10.73,15.79-25.87,16.12-47Zm-13.94-39.05c6.83,8.57,10.34,18.36,12.13,26.1a76,76,0,0,1,1.57,9.49c.12,1.17.18,2.08.21,2.69,0,.3,0,.53,0,.68a1.1,1.1,0,0,1,0,.16v0h0s0,0,4,0,4,0,4,0h0v-.09c0-.06,0-.14,0-.24s0-.49,0-.86c0-.73-.11-1.77-.24-3.08a82.65,82.65,0,0,0-1.74-10.5c-2-8.46-5.85-19.48-13.66-29.28Zm16.24,96c10.61-12.39,15.57-26.67,17.89-37.72a98.89,98.89,0,0,0,1.89-13.74c.11-1.71.15-3.08.16-4,0-.48,0-.85,0-1.12a2.45,2.45,0,0,0,0-.3v-.12h0l-4,.14-4,.13h0v.26c0,.2,0,.51,0,.93,0,.82,0,2.05-.14,3.6A90.3,90.3,0,0,1,968,283.73c-2.15,10.25-6.68,23.13-16.14,34.16ZM977.84,266c-1.27-24.45-9.12-41.87-19.76-54.18L952,217c9.37,10.85,16.63,26.52,17.82,49.36Zm-20.35-48.39a55.7,55.7,0,0,1,14.12-7.85l-2.87-7.47a63.85,63.85,0,0,0-16.12,9Zm9.47-9.21c9.72,13.19,14.65,27.66,17.13,38.91A112.84,112.84,0,0,1,986.27,261c.16,1.68.24,3,.28,3.88,0,.44,0,.78,0,1a2.2,2.2,0,0,1,0,.23v.05h4l4,0h0V266c0-.08,0-.18,0-.32s0-.67,0-1.17c0-1-.13-2.45-.3-4.27a120.05,120.05,0,0,0-2.34-14.71c-2.64-11.95-7.92-27.57-18.5-41.94Zm19.63,57.78c-.19,27.09-8.72,46.33-20,60l6.18,5.09c12.49-15.16,21.65-36.19,21.85-65.09Zm-15.42,58.89a64.14,64.14,0,0,1-13.92-7.77l-4.76,6.43a72.28,72.28,0,0,0,15.64,8.74Zm-41.07,18a75.15,75.15,0,0,0,15.95-8.94l-4.74-6.44a67.35,67.35,0,0,1-14.26,8Zm-4.2-.72A92.33,92.33,0,0,0,942,353.85l3.95-7a84.54,84.54,0,0,1-14.66-10.52Zm30.12-5.4a97.72,97.72,0,0,1-14.11,10l4.05,6.9A106.31,106.31,0,0,0,961.22,343Zm-14.79-2.88a83,83,0,0,0,15.69,9.54l3.39-7.24a75.45,75.45,0,0,1-14.18-8.62ZM929,355.33a92.34,92.34,0,0,1-15.2-13.52l-5.94,5.36a101.1,101.1,0,0,0,16.51,14.69Zm-22.22-6.14c1.62-.22,3.22-.48,4.77-.76l-1.44-7.87c-1.44.26-2.91.5-4.42.71Zm3.45,15.05v-19h-8v19Zm15-9.38a112.47,112.47,0,0,1-14.13,4.34c-1.75.41-3.13.68-4.07.85l-1.05.18-.25,0h-.06l.53,4,.54,4h0l.1,0,.34-.05,1.23-.21c1.06-.19,2.58-.49,4.47-.93a117.9,117.9,0,0,0,15.15-4.66ZM957.69,190.2a82.17,82.17,0,0,0-16.87,10.28l5,6.27A74,74,0,0,1,961,197.47Zm-12,10.19a82.75,82.75,0,0,0-15.32-8.8l-3.24,7.32A74.11,74.11,0,0,1,941,206.85Zm-1.92-20.51a88.46,88.46,0,0,0-17.7,12.4l5.36,5.94a80.1,80.1,0,0,1,16.11-11.28Zm-.21,6.94a82,82,0,0,1,13.09,9.94l5.45-5.85A89.1,89.1,0,0,0,947.72,180Zm163,79.28c-1.19-53.65-24.32-81.9-47.6-96.55a104.92,104.92,0,0,0-31.5-13.14,97.54,97.54,0,0,0-10.36-1.9c-1.26-.16-2.26-.25-3-.31l-.81,0H1013s0,0-.17,4-.16,4-.16,4h.18l.65.05c.58,0,1.46.13,2.6.27a88.54,88.54,0,0,1,9.5,1.74,97.41,97.41,0,0,1,29.09,12.13c21,13.22,42.73,39,43.86,89.95Zm-92.8,115.09c49.23-10.05,72.61-38.86,83.51-65.25a126.46,126.46,0,0,0,8.69-34.72c.48-4.59.63-8.37.67-11,0-1.33,0-2.37,0-3.1q0-.54,0-.84v-.32h0l-4,.26-4,.25h0v0s0,.08,0,.16,0,.38,0,.7c0,.62,0,1.56,0,2.78,0,2.43-.16,6-.62,10.26a119.23,119.23,0,0,1-8.13,32.51c-10,24.28-31.45,51-77.72,60.46Zm-4.8-20v16.12h8V361.15Zm73.92-95.08c-1.12,40.15-18.9,62.79-36.2,75.5a94.19,94.19,0,0,1-23.84,12.64c-3.24,1.16-5.91,1.92-7.76,2.38-.93.23-1.64.39-2.12.48l-.52.11-.12,0h0s0,0,.66,3.95.67,3.94.67,3.94h.08l.19,0,.67-.13c.58-.12,1.4-.3,2.44-.56,2.08-.52,5-1.35,8.53-2.6A102.37,102.37,0,0,0,1051.38,348c19.08-14,38.26-38.86,39.45-81.71Zm-70.49-88.26c34.87,6.76,52.39,28.69,61.32,49.13a114.77,114.77,0,0,1,8,27.44c.58,3.65.89,6.65,1,8.72.07,1,.12,1.83.13,2.37,0,.26,0,.46,0,.59v.16h0l4,0,4-.05h0v-.28q0-.25,0-.72c0-.62-.07-1.51-.15-2.64-.17-2.26-.5-5.48-1.12-9.38a123,123,0,0,0-8.52-29.38c-9.69-22.18-29-46.4-67.14-53.78Zm-3.55-19.6.31,15.76,8-.16-.31-15.76Z" transform="translate(-77.59 -50.16)"/></g></svg>